<?xml version="1.0" standalone="no"?>
<!DOCTYPE svg PUBLIC "-//W3C//DTD SVG 1.1//EN" "http://www.w3.org/Graphics/SVG/1.1/DTD/svg11.dtd" >
<svg xmlns="http://www.w3.org/2000/svg" xmlns:xlink="http://www.w3.org/1999/xlink" version="1.1">
<metadata>
Created by FontForge 20170731 at Sun May 29 15:53:32 2022
 By Aleksey,,,
Copyright (c) 1989, 1995, 2001 Adobe Systems Incorporated.  All Rights Reserved.
</metadata>
<defs>
<font id="VAGRoundedStd-Thin" horiz-adv-x="1097" >
  <font-face 
    font-family="VAG Rounded Std Thin"
    font-weight="250"
    font-stretch="normal"
    units-per-em="2048"
    panose-1="2 15 4 2 2 2 4 2 2 4"
    ascent="1577"
    descent="-471"
    x-height="1090"
    cap-height="1470"
    bbox="-221 -590 2157 1888"
    underline-thickness="102"
    underline-position="-307"
    unicode-range="U+0020-FB02"
  />
<missing-glyph horiz-adv-x="1024" 
d="M0 0v1434h1024v-1434h-1024zM512 809l348 522h-696zM573 717l349 -522v1044zM164 102h696l-348 523zM102 1239v-1044l349 522z" />
    <glyph glyph-name="fi" unicode="fi" horiz-adv-x="909" 
d="M319 967v-885q0 -94 -73 -94q-35 0 -54.5 24t-19.5 70v885h-96q-33 0 -48.5 19t-15.5 42t15.5 42.5t48.5 19.5h96v280q0 105 54 158t141 53h75q50 0 75.5 -19t25.5 -49q0 -67 -78 -67h-68q-34 0 -56 -20t-22 -48v-288h132q33 0 48 -19t15 -43q0 -23 -15 -42t-48 -19h-132
zM774 1008v-926q0 -46 -19.5 -70t-54.5 -24q-73 0 -73 94v926q0 94 73 94q35 0 54.5 -24t19.5 -70zM700 1270q-41 0 -70.5 29.5t-29.5 70.5t29.5 70.5t70.5 29.5t71 -29.5t30 -70.5t-30 -70.5t-71 -29.5z" />
    <glyph glyph-name="fl" unicode="fl" horiz-adv-x="909" 
d="M319 967v-885q0 -94 -73 -94q-35 0 -54.5 24t-19.5 70v885h-96q-33 0 -48.5 19t-15.5 42t15.5 42.5t48.5 19.5h96v280q0 105 54 158t141 53h75q50 0 75.5 -19t25.5 -49q0 -67 -78 -67h-68q-34 0 -56 -20t-22 -48v-288h132q33 0 48 -19t15 -43q0 -23 -15 -42t-48 -19h-132
zM774 1487v-1405q0 -46 -19.5 -70t-54.5 -24q-73 0 -73 94v1405q0 94 73 94q35 0 54.5 -24t19.5 -70z" />
    <glyph glyph-name=".notdef" horiz-adv-x="1024" 
d="M0 0v1434h1024v-1434h-1024zM512 809l348 522h-696zM573 717l349 -522v1044zM164 102h696l-348 523zM102 1239v-1044l349 522z" />
    <glyph glyph-name=".null" horiz-adv-x="0" 
 />
    <glyph glyph-name="nonmarkingreturn" horiz-adv-x="682" 
 />
    <glyph glyph-name="space" unicode=" " horiz-adv-x="491" 
 />
    <glyph glyph-name="exclam" unicode="!" horiz-adv-x="569" 
d="M190 82q0 37 29 65.5t66 28.5t65.5 -28.5t28.5 -65.5q0 -38 -28.5 -66t-65.5 -28t-66 28t-29 66zM211 508v868q0 46 19.5 70t54.5 24q73 0 73 -94v-868q0 -94 -73 -94q-35 0 -54.5 24t-19.5 70z" />
    <glyph glyph-name="quotedbl" unicode="&#x22;" horiz-adv-x="645" 
d="M123 1122v271q0 34 19.5 55.5t47.5 21.5q29 0 48.5 -21.5t19.5 -55.5v-271q0 -34 -20 -56t-48 -22t-47.5 21.5t-19.5 56.5zM387 1122v271q0 34 19.5 55.5t48.5 21.5q28 0 47.5 -21.5t19.5 -55.5v-271q0 -35 -19.5 -56.5t-47.5 -21.5t-48 22t-20 56z" />
    <glyph glyph-name="numbersign" unicode="#" 
d="M373 442l-54 -381q-5 -37 -20.5 -55t-48.5 -18q-26 0 -39.5 16.5t-13.5 40.5q0 33 10 98l41 299h-125q-36 0 -60 16.5t-24 45.5q0 30 23.5 45.5t60.5 15.5h143l47 328h-127q-37 0 -60.5 15.5t-23.5 45.5q0 29 24 45.5t60 16.5h144l53 381q9 73 70 73q26 0 39.5 -16.5
t13.5 -40.5q0 -33 -10 -98l-41 -299h270l53 381q9 73 70 73q26 0 39.5 -16.5t13.5 -40.5q0 -33 -10 -98l-41 -299h125q36 0 60 -16.5t24 -45.5q0 -30 -23.5 -45.5t-60.5 -15.5h-144l-47 -328h127q37 0 60.5 -15.5t23.5 -45.5q0 -29 -24 -45.5t-60 -16.5h-143l-53 -381
q-9 -73 -70 -73q-26 0 -39.5 16.5t-13.5 40.5q0 33 10 98l41 299h-270zM664 565l45 328h-273l-45 -328h273z" />
    <glyph glyph-name="dollar" unicode="$" horiz-adv-x="948" 
d="M502 702v-575q114 20 186 111t72 202q0 56 -19.5 99t-59 73t-79 49.5t-100.5 40.5zM428 887v444q-105 -15 -159 -72.5t-54 -142.5q0 -86 55.5 -138t157.5 -91zM428 123v606q-47 16 -76.5 27.5t-72 31t-69 38t-56.5 47.5t-46.5 61t-28 75.5t-11.5 94.5q0 154 102.5 250
t257.5 112v97q0 41 37 41t37 -41v-93q119 -3 219 -52.5t100 -108.5q0 -28 -15.5 -48t-45.5 -20q-18 0 -41.5 14t-46.5 31.5t-68.5 32.5t-101.5 16v-479q156 -59 214 -92q155 -87 184 -230q7 -37 7 -77q0 -188 -112.5 -318t-292.5 -147v-96q0 -41 -37 -41t-37 41v92
q-169 3 -278 58t-109 122q0 22 17 41.5t48 19.5q25 0 55 -16.5t57 -36.5t83 -36.5t127 -16.5z" />
    <glyph glyph-name="percent" unicode="%" horiz-adv-x="1517" 
d="M397 762q-129 0 -222 98t-93 248q0 160 94 261t221 101t221.5 -101t94.5 -261q0 -150 -93.5 -248t-222.5 -98zM397 860q64 0 109.5 38.5t64.5 93t19 116.5q0 116 -52 190t-141 74t-140.5 -73.5t-51.5 -190.5q0 -62 19 -116.5t64 -93t109 -38.5zM1120 -12q-129 0 -222 98
t-93 248q0 160 94 261t221 101t221.5 -101t94.5 -261q0 -150 -93.5 -248t-222.5 -98zM1120 86q64 0 109.5 38.5t64.5 93t19 116.5q0 116 -52 190t-141 74t-140.5 -73.5t-51.5 -190.5q0 -62 19 -116.5t64 -93t109 -38.5zM440 78l533 1362q20 51 63 51q26 0 42 -13.5t16 -33.5
q0 -15 -19 -64l-532 -1362q-20 -51 -64 -51q-26 0 -41.5 13t-15.5 34q0 17 18 64z" />
    <glyph glyph-name="ampersand" unicode="&#x26;" horiz-adv-x="1366" 
d="M643 866l361 -415l57 81q24 34 51.5 79.5t41 68.5t33 40t40.5 17q30 0 47.5 -17.5t17.5 -47.5q0 -16 -15 -50.5t-63.5 -108t-123.5 -167.5l188 -211q33 -35 33 -61q0 -80 -74 -80q-18 0 -31 9t-37 38l-163 188q-89 -107 -204 -174t-241 -67q-223 0 -350 120t-127 318
q0 146 90 261t258 212q-97 106 -132.5 168.5t-35.5 128.5q0 121 84 197.5t238 76.5q138 0 230.5 -70t92.5 -196q0 -58 -22.5 -109.5t-65.5 -94t-82 -71t-96 -63.5zM762 1196q0 69 -51 110.5t-133 41.5q-70 0 -118 -35t-48 -117q0 -11 2.5 -23t9 -26t11 -24.5t16.5 -27
t17.5 -24.5t21.5 -26.5t20.5 -24t22 -26t20.5 -23.5q119 68 164 116t45 109zM911 338l-397 457q-125 -62 -197.5 -158t-72.5 -205q0 -139 85.5 -224t225.5 -85q91 0 187.5 53.5t168.5 161.5z" />
    <glyph glyph-name="quotesingle" unicode="'" horiz-adv-x="380" 
d="M123 1122v271q0 34 19.5 55.5t47.5 21.5q29 0 48.5 -21.5t19.5 -55.5v-271q0 -34 -20 -56t-48 -22t-47.5 21.5t-19.5 56.5z" />
    <glyph glyph-name="parenleft" unicode="(" horiz-adv-x="417" 
d="M223 676q0 -349 49 -582q13 -60 28.5 -106t23 -66.5t6.5 -36.5q-3 -49 -60 -49q-34 0 -55.5 30.5t-42.5 100.5q-84 304 -84 709q0 404 84 708q22 70 43 101t55 31q57 0 60 -50q1 -16 -6.5 -36.5t-23 -66.5t-28.5 -106q-49 -233 -49 -581z" />
    <glyph glyph-name="parenright" unicode=")" horiz-adv-x="417" 
d="M195 676q0 343 -50 581q-13 60 -28.5 106t-22.5 66.5t-6 36.5q3 50 59 50q34 0 56 -31t43 -101q84 -304 84 -708q0 -405 -84 -709q-21 -69 -43 -100t-56 -31q-56 0 -59 49q-1 16 6 36.5t22.5 66.5t28.5 106q50 238 50 582z" />
    <glyph glyph-name="asterisk" unicode="*" horiz-adv-x="794" 
d="M328 1106l-187 84q-59 27 -59 61q0 60 63 60q23 0 68 -31l152 -115l-17 115q-12 86 -12 123q0 30 16 48.5t45 18.5t45.5 -18.5t16.5 -48.5t-13 -123l-16 -115l152 115q45 31 67 31q64 0 64 -60q0 -33 -60 -61l-186 -84l186 -84q60 -28 60 -61q0 -60 -64 -60q-22 0 -67 31
l-152 115l16 -115q13 -93 13 -123t-16.5 -49t-45.5 -19t-45 19t-16 49q0 37 12 123l17 115l-152 -115q-45 -31 -68 -31q-63 0 -63 60q0 34 59 61z" />
    <glyph glyph-name="plus" unicode="+" horiz-adv-x="1228" 
d="M547 586v372q0 35 19.5 56.5t47.5 21.5t48 -22t20 -56v-372h373q34 0 56 -20t22 -48t-21.5 -47.5t-56.5 -19.5h-373v-373q0 -34 -20 -56t-48 -22t-47.5 21.5t-19.5 56.5v373h-373q-35 0 -56.5 19.5t-21.5 47.5t22 48t56 20h373z" />
    <glyph glyph-name="comma" unicode="," horiz-adv-x="491" 
d="M82 -125l117 258q19 43 69 43q33 0 52.5 -19.5t19.5 -43.5q0 -25 -16 -62l-117 -258q-19 -43 -70 -43q-33 0 -52 20t-19 44t16 61z" />
    <glyph glyph-name="hyphen" unicode="-" horiz-adv-x="720" 
d="M162 612h397q35 0 56.5 -19.5t21.5 -47.5t-22 -48t-56 -20h-397q-34 0 -56 20t-22 48t21.5 47.5t56.5 19.5z" />
    <glyph glyph-name="period" unicode="." horiz-adv-x="491" 
d="M152 82q0 38 28 66t66 28t66 -28t28 -66t-28 -66t-66 -28t-66 28t-28 66z" />
    <glyph glyph-name="slash" unicode="/" horiz-adv-x="833" 
d="M96 96l522 1321q11 28 26.5 40.5t43.5 12.5q29 0 46.5 -15t17.5 -38q0 -17 -15 -55l-522 -1321q-11 -28 -26.5 -40.5t-43.5 -12.5q-29 0 -46 14.5t-17 38.5q0 20 14 55z" />
    <glyph glyph-name="zero" unicode="0" 
d="M549 -12q-65 0 -127.5 23t-124.5 78.5t-108.5 138t-75.5 212t-29 289.5t29 289.5t75.5 212t108.5 138t124.5 78.5t127.5 23t127.5 -23t124.5 -78.5t108.5 -138t75.5 -212t29 -289.5t-29 -289.5t-75.5 -212t-108.5 -138t-124.5 -78.5t-127.5 -23zM549 1335
q-101 0 -170.5 -80t-102 -214t-32.5 -312t32.5 -312t102 -214t170.5 -80t170.5 80t102 214t32.5 312t-32.5 312t-102 214t-170.5 80z" />
    <glyph glyph-name="one" unicode="1" horiz-adv-x="720" 
d="M360 1323h-186q-34 0 -56 20t-22 48t21.5 47.5t56.5 19.5h256q35 0 56.5 -19.5t21.5 -47.5v-1309q0 -46 -19.5 -70t-54.5 -24t-54.5 24t-19.5 70v1241z" />
    <glyph glyph-name="two" unicode="2" 
d="M338 135h561q35 0 56.5 -19.5t21.5 -47.5t-22 -48t-56 -20h-682q-40 0 -59 16.5t-19 40.5q0 36 39 90l473 654q125 172 125 284q0 250 -233 250q-131 0 -203 -86.5t-72 -249.5q0 -36 -19.5 -54.5t-51.5 -18.5q-37 0 -56.5 22.5t-19.5 75.5q0 190 119.5 318t308.5 128
q175 0 281 -99.5t106 -272.5q0 -75 -32 -154.5t-107 -181.5z" />
    <glyph glyph-name="three" unicode="3" 
d="M719 1096q0 27 -5.5 56.5t-20.5 63t-37 59.5t-59.5 43t-84.5 17q-96 0 -148.5 -59.5t-52.5 -169.5q0 -31 -21 -52.5t-52 -21.5t-52.5 21.5t-21.5 52.5q0 149 97.5 256.5t250.5 107.5q160 0 263.5 -104t103.5 -262q0 -105 -44 -189.5t-122 -136.5q108 -36 176.5 -131
t68.5 -215q0 -191 -127.5 -317.5t-318.5 -126.5q-75 0 -143 23.5t-115 59.5t-82 79.5t-51.5 84t-16.5 72.5q0 38 21 60t47 22q52 0 68 -51q7 -21 15 -40t30.5 -53.5t50 -59t74 -43.5t102.5 -19q128 0 207.5 81t79.5 202q0 60 -15 107.5t-36.5 76t-51 49t-54 29t-50.5 12.5
q-67 11 -100 24.5t-39.5 25t-6.5 32.5q0 29 19 47t67 25q88 12 137.5 80.5t49.5 181.5z" />
    <glyph glyph-name="four" unicode="4" 
d="M727 82v309h-586q-75 0 -75 58q0 36 55 122l485 807q54 92 148 92q57 0 88.5 -32t31.5 -88v-824h80q35 0 56.5 -19.5t21.5 -47.5t-22 -48t-56 -20h-80v-309q0 -94 -73 -94q-35 0 -54.5 24t-19.5 70zM727 526v822h-4l-471 -822h475z" />
    <glyph glyph-name="five" unicode="5" 
d="M252 883l76 481q8 49 26.5 71.5t61.5 22.5h438q35 0 56.5 -19.5t21.5 -47.5t-22 -48t-56 -20h-387l-66 -422q69 35 160 35q107 0 197.5 -55.5t145 -155.5t54.5 -221q0 -233 -126 -374.5t-326 -141.5q-82 0 -160.5 26t-129.5 62.5t-82.5 73.5t-31.5 61t19.5 49t52.5 25
q16 0 36 -16.5t44.5 -40.5t56 -48t82.5 -40.5t111 -16.5q135 0 215 103t80 259q0 143 -78 229.5t-211 86.5q-57 0 -121 -31t-92 -31q-21 0 -38 16t-17 40q0 16 10 88z" />
    <glyph glyph-name="six" unicode="6" 
d="M555 -12q-92 0 -167 31.5t-122.5 82t-80.5 116t-46.5 129.5t-13.5 126q0 140 39 280.5t108.5 264.5t154 231t185.5 201q44 41 78 41q28 0 47 -21.5t19 -56.5q0 -18 -20.5 -40t-59 -58t-84.5 -86t-108 -141t-119 -205h4q88 57 211 57q181 0 287 -126.5t106 -340.5
q0 -69 -15.5 -137t-49 -131t-81.5 -111t-118 -77t-154 -29zM543 123q116 0 193 88t77 250q0 160 -72.5 258t-193.5 98q-131 0 -196.5 -91t-65.5 -265q0 -87 26.5 -161.5t86.5 -125.5t145 -51z" />
    <glyph glyph-name="seven" unicode="7" horiz-adv-x="985" 
d="M901 1323l-543 -1282q-22 -53 -75 -53q-29 0 -48.5 16t-19.5 41q0 21 25 78l508 1200h-611q-34 0 -56 20t-22 48t21.5 47.5t56.5 19.5h717q72 0 72 -45q0 -30 -25 -90z" />
    <glyph glyph-name="eight" unicode="8" 
d="M549 745q-123 0 -193.5 -89t-70.5 -214q0 -57 17 -112.5t48.5 -102t83.5 -75.5t115 -29t115 29t83.5 75.5t48.5 102t17 112.5q0 125 -70.5 214t-193.5 89zM549 -12q-100 0 -181.5 36.5t-134 98t-80.5 140.5t-28 167q0 138 67.5 241.5t182.5 133.5v4q-87 53 -140 137.5
t-53 186.5q0 135 105.5 236t261.5 101t261 -100.5t105 -236.5q0 -102 -52.5 -186.5t-139.5 -137.5v-4q115 -30 182.5 -133.5t67.5 -241.5q0 -88 -28 -167t-80.5 -140.5t-134 -98t-181.5 -36.5zM549 881q108 0 163.5 65t55.5 168q0 94 -62 157.5t-157 63.5q-98 0 -158.5 -62
t-60.5 -155q0 -105 55.5 -171t163.5 -66z" />
    <glyph glyph-name="nine" unicode="9" 
d="M543 1470q92 0 167 -31.5t122.5 -82t80.5 -116t46.5 -129.5t13.5 -126q0 -140 -39 -280.5t-108.5 -264.5t-154.5 -231t-186 -201q-44 -41 -77 -41q-28 0 -47 21.5t-19 56.5q0 18 20.5 40t59 58t84.5 86t108 141t119 205h-4q-88 -57 -211 -57q-181 0 -287 126.5
t-106 340.5q0 69 15.5 137t49 131t81.5 111t118 77t154 29zM555 1335q-116 0 -193 -88t-77 -250q0 -160 72.5 -258t193.5 -98q131 0 196.5 91t65.5 265q0 87 -26.5 161.5t-86.5 125.5t-145 51z" />
    <glyph glyph-name="colon" unicode=":" horiz-adv-x="491" 
d="M152 774q0 38 28 66t66 28t66 -28t28 -66t-28 -66t-66 -28t-66 28t-28 66zM152 82q0 38 28 66t66 28t66 -28t28 -66t-28 -66t-66 -28t-66 28t-28 66z" />
    <glyph glyph-name="semicolon" unicode=";" horiz-adv-x="491" 
d="M82 -125l117 258q19 43 69 43q33 0 52.5 -19.5t19.5 -43.5q0 -25 -16 -62l-117 -258q-19 -43 -70 -43q-33 0 -52 20t-19 44t16 61zM340 774q0 -37 -28.5 -65.5t-65.5 -28.5t-65.5 28.5t-28.5 65.5t28.5 65.5t65.5 28.5t65.5 -28.5t28.5 -65.5z" />
    <glyph glyph-name="less" unicode="&#x3c;" horiz-adv-x="1228" 
d="M283 518l807 -393q35 -18 49 -33.5t14 -40.5q0 -29 -16 -46t-43 -17q-26 0 -64 18l-899 440q-55 27 -55 72t55 72l899 440q40 19 64 19q26 0 42.5 -15.5t16.5 -36.5q0 -55 -70 -88z" />
    <glyph glyph-name="equal" unicode="=" horiz-adv-x="1228" 
d="M174 791h881q34 0 56 -20t22 -48t-22 -48t-56 -20h-881q-34 0 -56 20t-22 48t22 48t56 20zM174 381h881q34 0 56 -20t22 -48t-21.5 -47.5t-56.5 -19.5h-881q-35 0 -56.5 19.5t-21.5 47.5t22 48t56 20z" />
    <glyph glyph-name="greater" unicode="&#x3e;" horiz-adv-x="1228" 
d="M946 518l-801 391q-69 32 -69 88q0 21 16.5 36.5t42.5 15.5q24 0 64 -19l899 -440q55 -27 55 -72t-55 -72l-899 -440q-37 -18 -64 -18t-43 17t-16 46q0 25 14 40.5t49 33.5z" />
    <glyph glyph-name="question" unicode="?" horiz-adv-x="909" 
d="M358 504v260q0 42 14 59t66 27q128 26 192 92t64 164q0 73 -39 127t-94 78t-115 24q-85 0 -156 -43t-87 -118q-10 -50 -27 -67t-53 -17q-33 0 -50.5 22t-17.5 55q0 87 54.5 157.5t143.5 108t193 37.5q180 0 294 -100t114 -260q0 -73 -19 -132t-50.5 -100t-78 -72.5
t-94 -50.5t-106.5 -34v-217q0 -46 -19.5 -70t-54.5 -24t-54.5 24t-19.5 70zM338 82q0 38 28 66t66 28t66 -28t28 -66t-28 -66t-66 -28t-66 28t-28 66z" />
    <glyph glyph-name="at" unicode="@" horiz-adv-x="1638" 
d="M537 608q0 -85 43.5 -136.5t121.5 -51.5q64 0 126 46.5t103 113.5t66 138t25 124q0 182 -166 182q-66 0 -127 -40.5t-102 -102.5t-65.5 -134.5t-24.5 -138.5zM1085 999l27 70q20 53 72 53q27 0 43 -12.5t16 -34.5q0 -12 -12 -49l-148 -469q-20 -66 -20 -100
q0 -28 14.5 -45t40.5 -17q79 0 154.5 69.5t120.5 175.5t45 210q0 153 -80.5 270.5t-214.5 178.5t-299 61q-182 0 -330 -86t-230.5 -231.5t-82.5 -319.5q0 -172 86 -316.5t230 -226.5t310 -82q116 0 212 24.5t154 60t100 71t71 60t47 24.5q22 0 33.5 -12.5t11.5 -32.5
q0 -21 -29 -57t-86 -79t-129.5 -80.5t-172.5 -63t-203 -25.5q-155 0 -295 58.5t-241.5 157.5t-161.5 237.5t-60 291.5q0 151 61.5 288t164.5 235t243.5 156t294.5 58q199 0 363 -77t260 -217.5t96 -315.5q0 -98 -33.5 -190.5t-87 -160.5t-117.5 -119.5t-128 -78t-116 -26.5
q-140 0 -164 129h-4q-32 -39 -58 -63t-76.5 -45t-112.5 -21q-135 0 -211 89t-76 224q0 137 58 264.5t167.5 212t241.5 84.5q75 0 140.5 -40.5t100.5 -119.5z" />
    <glyph glyph-name="A" unicode="A" horiz-adv-x="1253" 
d="M272 317l-96 -262q-12 -25 -18.5 -35.5t-23 -21t-40.5 -10.5q-31 0 -48 16t-17 41q0 26 14 61l469 1258q9 24 15.5 37.5t20 32t33.5 27.5t46 9t45.5 -9t33 -28t20 -31.5t15.5 -37.5l469 -1258q15 -37 15 -61t-17.5 -40.5t-48.5 -16.5q-35 0 -52 17t-30 50l-96 262h-709z
M932 453l-303 825h-4l-303 -825h610z" />
    <glyph glyph-name="B" unicode="B" horiz-adv-x="1099" 
d="M135 78v1302q0 39 21 58.5t69 19.5h264q92 0 165.5 -22.5t120.5 -58.5t78.5 -84.5t44.5 -97.5t13 -101q0 -122 -52.5 -193.5t-153.5 -112.5v-4q153 -25 236 -118.5t83 -247.5q0 -84 -27.5 -158t-82.5 -133t-145.5 -93t-207.5 -34h-336q-48 0 -69 19.5t-21 58.5zM283 1323
v-489h215q114 0 190 71.5t76 181.5q0 96 -70 166t-192 70h-219zM283 711v-576h262q157 0 244.5 74t87.5 213q0 128 -92 208.5t-242 80.5h-260z" />
    <glyph glyph-name="C" unicode="C" horiz-adv-x="1214" 
d="M717 1470q87 0 172 -24t142 -58.5t92.5 -71.5t35.5 -65q0 -36 -19.5 -56.5t-45.5 -20.5q-16 0 -39 16.5t-52 40t-66.5 47.5t-96 40.5t-125.5 16.5q-89 0 -166.5 -36.5t-133 -98.5t-95 -142.5t-59 -169.5t-19.5 -179q0 -92 17.5 -176.5t57 -159.5t96.5 -130.5t141 -87.5
t187 -32q87 0 160 22.5t110 49t69 49t48 22.5q62 0 62 -73q0 -24 -34.5 -58.5t-92.5 -67.5t-146.5 -56t-183.5 -23q-130 0 -238.5 37.5t-184 104t-127.5 158t-76.5 197.5t-24.5 224q0 117 24.5 226.5t76 207t125 170t179 115t230.5 42.5z" />
    <glyph glyph-name="D" unicode="D" horiz-adv-x="1290" 
d="M135 78v1302q0 39 21 58.5t69 19.5h365q128 0 233.5 -44.5t175.5 -117.5t118 -170t69.5 -199t21.5 -208q0 -165 -48.5 -301.5t-133.5 -227t-200 -140.5t-248 -50h-353q-48 0 -69 19.5t-21 58.5zM283 1323v-1188h286q104 0 185.5 31t136.5 85t91 132t51.5 167t15.5 195
q0 87 -15 167.5t-51 156t-88.5 131.5t-134 89.5t-182.5 33.5h-295z" />
    <glyph glyph-name="E" unicode="E" horiz-adv-x="909" 
d="M283 659v-524h446q35 0 56.5 -19.5t21.5 -47.5t-22 -48t-56 -20h-504q-48 0 -69 19.5t-21 58.5v1302q0 39 21 58.5t69 19.5h484q34 0 55.5 -19.5t21.5 -47.5q0 -29 -21.5 -48.5t-55.5 -19.5h-424v-528h405q34 0 56 -20t22 -48t-22 -48t-56 -20h-407z" />
    <glyph glyph-name="F" unicode="F" horiz-adv-x="833" 
d="M283 659v-577q0 -46 -19.5 -70t-54.5 -24t-54.5 24t-19.5 70v1302q0 30 21.5 51t52.5 23h518q35 0 56.5 -19.5t21.5 -47.5t-22 -48t-56 -20h-444v-528h393q34 0 56 -20t22 -48t-22 -48t-56 -20h-393z" />
    <glyph glyph-name="G" unicode="G" horiz-adv-x="1366" 
d="M909 821h281q125 0 125 -112q0 -721 -594 -721q-132 0 -240.5 41.5t-181.5 111.5t-122.5 165.5t-72 201t-22.5 221.5q0 111 24.5 216.5t76 201t125 167t179 114t230.5 42.5q101 0 197.5 -26t159.5 -62.5t101.5 -73.5t38.5 -61q0 -38 -20.5 -58t-50.5 -20q-21 0 -59.5 26
t-80.5 57t-117.5 57t-160.5 26q-98 0 -180 -36t-137 -96t-93.5 -139.5t-55.5 -163.5t-17 -171q0 -126 30.5 -234.5t89.5 -192t154 -131.5t217 -48q92 0 166.5 30.5t123.5 83t82 125t47.5 153t14.5 171.5h-258q-34 0 -56 20t-22 48t21.5 47.5t56.5 19.5z" />
    <glyph glyph-name="H" unicode="H" horiz-adv-x="1366" 
d="M283 680v-598q0 -46 -19.5 -70t-54.5 -24t-54.5 24t-19.5 70v1294q0 46 19.5 70t54.5 24t54.5 -24t19.5 -70v-561h800v561q0 46 19.5 70t54.5 24t54.5 -24t19.5 -70v-1294q0 -46 -19.5 -70t-54.5 -24t-54.5 24t-19.5 70v598h-800z" />
    <glyph glyph-name="I" unicode="I" horiz-adv-x="417" 
d="M283 1376v-1294q0 -46 -19.5 -70t-54.5 -24t-54.5 24t-19.5 70v1294q0 46 19.5 70t54.5 24t54.5 -24t19.5 -70z" />
    <glyph glyph-name="J" unicode="J" horiz-adv-x="720" 
d="M586 1376v-1040q0 -160 -87 -254t-235 -94q-120 0 -209.5 49.5t-89.5 95.5q0 30 16.5 48t41.5 18q17 0 38 -13.5t42 -30.5t62 -30.5t93 -13.5q53 0 89 17t55.5 49t27.5 70.5t8 88.5v1040q0 46 19.5 70t54.5 24t54.5 -24t19.5 -70z" />
    <glyph glyph-name="K" unicode="K" horiz-adv-x="1138" 
d="M283 707v-625q0 -46 -19.5 -70t-54.5 -24t-54.5 24t-19.5 70v1294q0 46 19.5 70t54.5 24t54.5 -24t19.5 -70v-542l653 587q52 49 90 49q30 0 47 -18.5t17 -42.5q0 -35 -33 -63l-639 -574l688 -655q33 -29 33 -66q0 -26 -18 -44.5t-48 -18.5q-39 0 -88 49z" />
    <glyph glyph-name="L" unicode="L" horiz-adv-x="757" 
d="M283 1376v-1241h385q34 0 55.5 -19.5t21.5 -47.5q0 -29 -21.5 -48.5t-55.5 -19.5h-459q-31 0 -52.5 21.5t-21.5 52.5v1302q0 46 19.5 70t54.5 24t54.5 -24t19.5 -70z" />
    <glyph glyph-name="M" unicode="M" horiz-adv-x="1708" 
d="M854 244l332 1130q28 96 108 96q133 0 150 -114l174 -1168q20 -123 20 -133q0 -67 -69 -67q-37 0 -54 22t-24 66l-182 1235h-4l-365 -1225q-17 -56 -36 -77t-52 -21q-30 0 -46 18.5t-28 56.5l-375 1244h-4l-182 -1231q-7 -44 -24 -66t-54 -22q-69 0 -69 67q0 10 20 133
l174 1168q17 114 150 114q84 0 112 -96l324 -1130h4z" />
    <glyph glyph-name="N" unicode="N" horiz-adv-x="1363" 
d="M283 1200v-1118q0 -46 -19.5 -70t-54.5 -24t-54.5 24t-19.5 70v1302q0 41 21 63.5t53 22.5q49 0 86 -53l782 -1145h4v1104q0 46 19.5 70t54.5 24t54.5 -24t19.5 -70v-1298q0 -90 -70 -90q-27 0 -43 11.5t-37 41.5l-792 1159h-4z" />
    <glyph glyph-name="O" unicode="O" horiz-adv-x="1400" 
d="M82 729q0 113 24.5 219.5t75 201.5t122.5 166t174 112.5t222 41.5t222 -41.5t174 -112.5t123 -166t75.5 -201.5t24.5 -219.5t-24.5 -219.5t-75.5 -201.5t-123 -166t-174 -112.5t-222 -41.5t-222 41.5t-174 112.5t-122.5 166t-75 201.5t-24.5 219.5zM700 123q99 0 179 37
t131 97t85.5 140.5t49 163t14.5 168.5t-14.5 168.5t-49 163t-85.5 140.5t-131 97t-179 37t-178.5 -37t-130.5 -97t-85.5 -140.5t-49 -163t-14.5 -168.5t14.5 -168.5t49 -163t85.5 -140.5t130.5 -97t178.5 -37z" />
    <glyph glyph-name="P" unicode="P" horiz-adv-x="1062" 
d="M283 557v-475q0 -46 -19.5 -70t-54.5 -24t-54.5 24t-19.5 70v1298q0 39 21 58.5t71 19.5h351q95 0 173.5 -28.5t128.5 -73.5t84.5 -104t49 -117t14.5 -115q0 -93 -29.5 -175t-87.5 -147t-153 -103t-217 -38h-258zM283 1323v-631h270q84 0 149 28.5t103 75t57 100.5
t19 112t-19 112t-57 100.5t-103 74.5t-149 28h-270z" />
    <glyph glyph-name="Q" unicode="Q" horiz-adv-x="1400" 
d="M1198 266l152 -157q30 -30 30 -66q0 -23 -19.5 -39t-43.5 -16q-35 0 -64 32l-135 144q-161 -176 -418 -176q-120 0 -222 41.5t-174 112.5t-122.5 166t-75 201.5t-24.5 219.5t24.5 219.5t75 201.5t122.5 166t174 112.5t222 41.5t222 -41.5t174 -112.5t123 -166
t75.5 -201.5t24.5 -219.5q0 -267 -121 -463zM1024 262l-133 139q-29 32 -29 56q0 25 20 42t50 17q32 0 61 -31l101 -106q65 144 65 350q0 90 -14.5 175t-49 166.5t-86 142.5t-131 98t-178.5 37t-178.5 -37t-131 -98t-85.5 -142.5t-48.5 -166.5t-14.5 -175t14.5 -174.5
t48.5 -166.5t85.5 -142.5t131 -97.5t178.5 -37q207 0 324 151z" />
    <glyph glyph-name="R" unicode="R" horiz-adv-x="1062" 
d="M283 647v-565q0 -46 -19.5 -70t-54.5 -24t-54.5 24t-19.5 70v1298q0 39 21 58.5t71 19.5h322q104 0 189 -33t139 -88.5t83 -126t29 -147.5q0 -177 -108.5 -294.5t-280.5 -117.5h-135l504 -538q17 -17 22.5 -29.5t5.5 -34.5q0 -27 -19.5 -44t-45.5 -17q-37 0 -66 32z
M283 1323v-549h256q146 0 224.5 67t78.5 195q0 142 -76.5 214.5t-226.5 72.5h-256z" />
    <glyph glyph-name="S" unicode="S" horiz-adv-x="946" 
d="M442 -12q-172 0 -286.5 55t-114.5 119q0 29 20.5 50t49.5 21q11 0 33.5 -11.5t35.5 -22.5q20 -17 97 -46.5t145 -29.5q98 0 177 47.5t119 119.5t40 150q0 56 -23.5 100t-63.5 73.5t-92 54t-109.5 45.5t-115 43.5t-109.5 52.5t-92 67.5t-63.5 94t-23.5 127.5q0 114 60 199
t154 127.5t207 45.5q77 0 155.5 -25t127.5 -62.5t49 -71.5q0 -32 -19.5 -55t-41.5 -23q-24 0 -54 16t-56 35t-72 35t-99 16q-113 0 -188.5 -67t-75.5 -160q0 -51 23.5 -91.5t63.5 -68t92 -50t109.5 -43.5t115 -43.5t109.5 -54.5t92 -71.5t63.5 -99.5t23.5 -135
q0 -201 -127.5 -332t-335.5 -131z" />
    <glyph glyph-name="T" unicode="T" horiz-adv-x="872" 
d="M510 1323v-1241q0 -46 -19.5 -70t-54.5 -24t-54.5 24t-19.5 70v1241h-282q-34 0 -56 20t-22 48t21.5 47.5t56.5 19.5h713q34 0 55.5 -19.5t21.5 -47.5q0 -29 -21.5 -48.5t-55.5 -19.5h-283z" />
    <glyph glyph-name="U" unicode="U" horiz-adv-x="1363" 
d="M135 496v880q0 46 19.5 70t54.5 24t54.5 -24t19.5 -70v-862q0 -97 33 -173.5t90 -123t127 -70.5t149 -24t149 24t127 70.5t90 123t33 173.5v862q0 46 19.5 70t54.5 24t54.5 -24t19.5 -70v-880q0 -122 -45.5 -220.5t-122.5 -160t-174 -94.5t-205 -33t-205 33t-174 94.5
t-122.5 160t-45.5 220.5z" />
    <glyph glyph-name="V" unicode="V" horiz-adv-x="1138" 
d="M571 231l402 1178q19 61 71 61q34 0 54 -19t20 -50q0 -26 -28 -103l-433 -1220q-31 -90 -88 -90t-88 90l-432 1220q-29 80 -29 103q0 31 20 50t54 19q53 0 72 -61l401 -1178h4z" />
    <glyph glyph-name="W" unicode="W" horiz-adv-x="1671" 
d="M406 160l352 1241q20 69 78 69q57 0 77 -69l353 -1241h4l196 1237q12 73 80 73q29 0 48.5 -16t19.5 -45q0 -16 -25 -152l-215 -1187q-7 -39 -38.5 -60.5t-69.5 -21.5q-89 0 -111 82l-317 1169h-4l-326 -1169q-22 -82 -111 -82q-38 0 -69.5 21.5t-38.5 60.5l-207 1187
q-25 129 -25 152q0 29 19.5 45t48.5 16q68 0 80 -73l196 -1237h5z" />
    <glyph glyph-name="X" unicode="X" horiz-adv-x="1216" 
d="M608 899l357 518q20 30 35.5 41.5t41.5 11.5q28 0 49 -17t21 -40q0 -22 -29 -67l-393 -564l473 -669q29 -45 29 -68t-21 -40t-49 -17q-26 0 -42 11.5t-36 41.5l-436 623l-436 -623q-20 -30 -36 -41.5t-42 -11.5q-28 0 -48.5 17t-20.5 40q0 25 28 68l473 669l-393 564
q-29 45 -29 67q0 23 21 40t49 17q26 0 42 -11.5t36 -41.5z" />
    <glyph glyph-name="Y" unicode="Y" horiz-adv-x="987" 
d="M494 834l356 593q23 43 74 43q29 0 45 -16t16 -41q0 -28 -45 -102l-373 -621v-608q0 -94 -73 -94q-35 0 -54.5 24t-19.5 70v608l-373 621q-45 74 -45 102q0 25 16 41t45 16q51 0 74 -43z" />
    <glyph glyph-name="Z" unicode="Z" horiz-adv-x="1138" 
d="M242 135h762q34 0 55.5 -19.5t21.5 -47.5q0 -29 -21.5 -48.5t-55.5 -19.5h-824q-61 0 -92 22.5t-31 59.5q0 35 60 127l731 1114h-684q-34 0 -56 20t-22 48t21.5 47.5t56.5 19.5h821q35 0 52.5 -16t17.5 -39q0 -31 -29 -74z" />
    <glyph glyph-name="bracketleft" unicode="[" horiz-adv-x="454" 
d="M152 -45v1442q0 31 21 52t52 21h140q33 0 48 -19t15 -42t-15 -42t-48 -19h-66v-1344h66q33 0 48 -19t15 -42t-15 -42.5t-48 -19.5h-140q-31 0 -52 21.5t-21 52.5z" />
    <glyph glyph-name="backslash" unicode="\" horiz-adv-x="833" 
d="M215 1417l522 -1321q15 -38 15 -55q0 -23 -17.5 -38t-46.5 -15q-28 0 -43.5 12.5t-26.5 40.5l-522 1321q-14 35 -14 55q0 24 17 38.5t46 14.5q28 0 43.5 -12.5t26.5 -40.5z" />
    <glyph glyph-name="bracketright" unicode="]" horiz-adv-x="454" 
d="M303 1397v-1442q0 -31 -21.5 -52.5t-52.5 -21.5h-139q-33 0 -48 19.5t-15 42.5t15 42t48 19h66v1344h-66q-33 0 -48 19t-15 42t15 42t48 19h139q31 0 52.5 -21t21.5 -52z" />
    <glyph glyph-name="asciicircum" unicode="^" horiz-adv-x="1228" 
d="M117 647l432 778q14 27 29 36t36 9q43 0 66 -45l432 -778q18 -32 18 -57q0 -27 -20 -40t-47 -13q-29 1 -46 17.5t-38 53.5l-365 662l-364 -662q-21 -37 -38 -53.5t-46 -17.5q-27 0 -47.5 13t-20.5 40q0 23 19 57z" />
    <glyph glyph-name="underscore" unicode="_" horiz-adv-x="1024" 
d="M1024 -256h-1024q-26 0 -42.5 13.5t-16.5 37.5t16.5 37.5t42.5 13.5h1024q26 0 42.5 -13.5t16.5 -37.5t-16.5 -37.5t-42.5 -13.5z" />
    <glyph glyph-name="grave" unicode="`" horiz-adv-x="417" 
d="M324 1245l-283 109q-26 9 -39.5 22.5t-15.5 22t-2 22.5q0 25 16 47.5t41 22.5q23 0 53 -12l283 -109q26 -9 39.5 -22.5t15.5 -22t2 -22.5q0 -25 -16 -47.5t-41 -22.5q-23 0 -53 12z" />
    <glyph glyph-name="a" unicode="a" horiz-adv-x="1138" 
d="M856 940v68q0 46 19.5 70t54.5 24t54.5 -24t19.5 -70v-926q0 -46 -19.5 -70t-54.5 -24t-54.5 24t-19.5 70v68h-6q-49 -79 -127 -120.5t-174 -41.5q-151 0 -259 76t-159 200t-51 281q0 84 18 163.5t55.5 151t91.5 125.5t131 85.5t169 31.5q94 0 167.5 -39.5t137.5 -122.5
h6zM240 545q0 -79 16.5 -152.5t51.5 -138.5t97 -104t144 -39q66 0 119.5 26t88 69t57.5 100.5t32.5 116.5t9.5 122t-9.5 122t-32.5 116.5t-57.5 100.5t-88 69t-119.5 26q-64 0 -117.5 -26t-88 -69t-58.5 -100.5t-34.5 -117t-10.5 -121.5z" />
    <glyph glyph-name="b" unicode="b" horiz-adv-x="1138" 
d="M135 82v1405q0 46 19.5 70t54.5 24t54.5 -24t19.5 -70v-547h6q64 83 137.5 122.5t167.5 39.5q92 0 169 -31.5t131 -85.5t91.5 -125.5t55.5 -151t18 -163.5q0 -157 -51 -281t-159 -200t-259 -76q-96 0 -174 41.5t-127 120.5h-6v-68q0 -46 -19.5 -70t-54.5 -24t-54.5 24
t-19.5 70zM281 545q0 -79 16.5 -152.5t51.5 -138.5t97 -104t144 -39t144 39t97 104t51.5 138.5t16.5 152.5t-16.5 152.5t-51.5 138.5t-97 104t-144 39t-144 -39t-97 -104t-51.5 -138.5t-16.5 -152.5z" />
    <glyph glyph-name="c" unicode="c" horiz-adv-x="909" 
d="M549 123q58 0 104 14.5t74 28.5t43 14q22 0 41.5 -17t19.5 -42q0 -64 -82.5 -98.5t-199.5 -34.5q-111 0 -202 48t-148 128t-88 178t-31 203q0 104 33.5 203t93.5 178t154 127.5t206 48.5q105 0 188 -35t83 -80q0 -37 -20.5 -59.5t-61.5 -22.5q-14 0 -38.5 15.5t-67.5 31
t-101 15.5q-75 0 -136 -39t-97.5 -101t-56 -132t-19.5 -138q0 -116 36 -214t108 -159t165 -61z" />
    <glyph glyph-name="d" unicode="d" horiz-adv-x="1138" 
d="M856 940v547q0 46 19.5 70t54.5 24t54.5 -24t19.5 -70v-1405q0 -46 -19.5 -70t-54.5 -24t-54.5 24t-19.5 70v68h-6q-49 -79 -127 -120.5t-174 -41.5q-151 0 -259 76t-159 200t-51 281q0 84 18 163.5t55.5 151t91.5 125.5t131 85.5t169 31.5q94 0 167.5 -39.5
t137.5 -122.5h6zM240 545q0 -79 16.5 -152.5t51.5 -138.5t97 -104t144 -39q66 0 119.5 26t88 69t57.5 100.5t32.5 116.5t9.5 122t-9.5 122t-32.5 116.5t-57.5 100.5t-88 69t-119.5 26q-64 0 -117.5 -26t-88 -69t-58.5 -100.5t-34.5 -117t-10.5 -121.5z" />
    <glyph glyph-name="e" unicode="e" horiz-adv-x="1062" 
d="M913 479h-673q5 -148 96 -258t227 -110q79 0 144.5 26.5t99.5 57.5t66.5 57.5t54.5 26.5q34 0 51.5 -16t17.5 -56q0 -26 -31.5 -62.5t-84.5 -71.5t-135.5 -60t-172.5 -25q-101 0 -184.5 32t-140 85.5t-95 125.5t-56 151t-17.5 163q0 105 31 203t88 178t148 128t202 48
t201.5 -44.5t147 -119.5t86.5 -170t30 -199q0 -90 -101 -90zM240 602h614q-2 70 -23 136t-58 120.5t-95.5 87.5t-130.5 33t-130.5 -33t-95.5 -87.5t-58 -120.5t-23 -136z" />
    <glyph glyph-name="f" unicode="f" horiz-adv-x="493" 
d="M319 967v-885q0 -94 -73 -94q-35 0 -54.5 24t-19.5 70v885h-96q-33 0 -48.5 19t-15.5 42t15.5 42.5t48.5 19.5h96v280q0 105 54 158t141 53h75q50 0 75.5 -19t25.5 -49q0 -67 -78 -67h-68q-34 0 -56 -20t-22 -48v-288h132q33 0 48 -19t15 -43q0 -23 -15 -42t-48 -19h-132
z" />
    <glyph glyph-name="g" unicode="g" horiz-adv-x="1138" 
d="M856 942v66q0 46 19.5 70t54.5 24t54.5 -24t19.5 -70v-957q0 -98 -26.5 -180.5t-72 -139.5t-106.5 -96.5t-129.5 -58t-141.5 -18.5q-78 0 -156.5 20t-134 50t-91 64t-35.5 62q0 34 18 55t55 21q18 0 52.5 -21.5t70 -47t92 -47t115.5 -21.5q68 0 127.5 20t108.5 60
t77.5 108.5t28.5 157.5v115h-4q-47 -82 -125 -124t-178 -42q-151 0 -259 76t-159 200t-51 281q0 84 18 163.5t55.5 151t91.5 125.5t131 85.5t169 31.5q93 0 176 -45.5t131 -114.5h4zM240 545q0 -79 16.5 -152.5t51.5 -138.5t97 -104t144 -39q95 0 167.5 51.5t107 125
t34.5 152.5v209q0 59 -21 117t-58.5 106t-97.5 77.5t-132 29.5q-82 0 -144 -39t-97 -104t-51.5 -138.5t-16.5 -152.5z" />
    <glyph glyph-name="h" unicode="h" 
d="M283 682v-600q0 -46 -19.5 -70t-54.5 -24t-54.5 24t-19.5 70v1405q0 46 19.5 70t54.5 24t54.5 -24t19.5 -70v-533h4q102 148 284 148q74 0 143 -25t125 -71.5t90 -122.5t34 -170v-631q0 -46 -19.5 -70t-54.5 -24t-54.5 24t-19.5 70v635q0 114 -71.5 182t-194.5 68
q-110 0 -188 -76t-78 -209z" />
    <glyph glyph-name="i" unicode="i" horiz-adv-x="417" 
d="M283 1008v-926q0 -46 -19.5 -70t-54.5 -24t-54.5 24t-19.5 70v926q0 46 19.5 70t54.5 24t54.5 -24t19.5 -70zM109 1370q0 41 29.5 70.5t70.5 29.5t70.5 -29.5t29.5 -70.5t-29.5 -70.5t-70.5 -29.5t-70.5 29.5t-29.5 70.5z" />
    <glyph glyph-name="j" unicode="j" horiz-adv-x="417" 
d="M283 1006v-1354q0 -46 -19.5 -70t-54.5 -24t-54.5 24t-19.5 70v1354q0 96 74 96t74 -96zM109 1370q0 41 29.5 70.5t70.5 29.5t70.5 -29.5t29.5 -70.5t-29.5 -70.5t-70.5 -29.5t-70.5 29.5t-29.5 70.5z" />
    <glyph glyph-name="k" unicode="k" horiz-adv-x="909" 
d="M283 520v-438q0 -46 -19.5 -70t-54.5 -24t-54.5 24t-19.5 70v1405q0 46 19.5 70t54.5 24t54.5 -24t19.5 -70v-782l440 356q49 41 76 41q25 0 43 -19t18 -45q0 -25 -10 -40.5t-33 -34.5l-442 -342l489 -478q31 -29 43.5 -49.5t12.5 -44.5q0 -26 -18 -43.5t-42 -17.5
q-32 0 -57.5 17t-73.5 65z" />
    <glyph glyph-name="l" unicode="l" horiz-adv-x="417" 
d="M283 1487v-1405q0 -46 -19.5 -70t-54.5 -24t-54.5 24t-19.5 70v1405q0 46 19.5 70t54.5 24t54.5 -24t19.5 -70z" />
    <glyph glyph-name="m" unicode="m" horiz-adv-x="1703" 
d="M926 682v-600q0 -46 -19.5 -70t-54.5 -24t-54.5 24t-19.5 70v600q0 285 -246 285q-97 0 -173 -77t-76 -208v-600q0 -46 -19.5 -70t-54.5 -24t-54.5 24t-19.5 70v926q0 46 19.5 70t54.5 24t54.5 -24t19.5 -70v-54h4q102 148 284 148q96 0 173 -51t114 -140
q54 91 141.5 141t178.5 50q74 0 143 -25t125 -71.5t89.5 -122.5t33.5 -170v-631q0 -46 -19.5 -70t-54.5 -24t-54.5 24t-19.5 70v600q0 285 -245 285q-97 0 -173.5 -77t-76.5 -208z" />
    <glyph glyph-name="n" unicode="n" 
d="M283 682v-600q0 -46 -19.5 -70t-54.5 -24t-54.5 24t-19.5 70v926q0 46 19.5 70t54.5 24t54.5 -24t19.5 -70v-54h4q102 148 284 148q74 0 143 -25t125 -71.5t90 -122.5t34 -170v-631q0 -46 -19.5 -70t-54.5 -24t-54.5 24t-19.5 70v635q0 114 -71.5 182t-194.5 68
q-110 0 -188 -76t-78 -209z" />
    <glyph glyph-name="o" unicode="o" 
d="M240 545q0 -79 16.5 -152.5t51.5 -138.5t97 -104t144 -39t144 39t97 104t51.5 138.5t16.5 152.5t-16.5 152.5t-51.5 138.5t-97 104t-144 39t-144 -39t-97 -104t-51.5 -138.5t-16.5 -152.5zM1018 545q0 -157 -51 -281t-159 -200t-259 -76t-259 76t-159 200t-51 281
q0 84 18 163.5t56 151t92 125.5t132 85.5t171 31.5q94 0 172.5 -31.5t132.5 -85.5t91.5 -125.5t55 -151t17.5 -163.5z" />
    <glyph glyph-name="p" unicode="p" horiz-adv-x="1138" 
d="M135 -348v1356q0 46 19.5 70t54.5 24t54.5 -24t19.5 -70v-68h6q49 79 127 120.5t174 41.5q151 0 259 -76t159 -200t51 -281q0 -84 -18 -163.5t-55.5 -151t-91.5 -125.5t-131 -85.5t-169 -31.5q-94 0 -167.5 39.5t-137.5 122.5h-6v-498q0 -46 -19.5 -70t-54.5 -24
t-54.5 24t-19.5 70zM281 545q0 -79 16.5 -152.5t51.5 -138.5t97 -104t144 -39t144 39t97 104t51.5 138.5t16.5 152.5t-16.5 152.5t-51.5 138.5t-97 104t-144 39t-144 -39t-97 -104t-51.5 -138.5t-16.5 -152.5z" />
    <glyph glyph-name="q" unicode="q" horiz-adv-x="1138" 
d="M80 545q0 157 51 281t159 200t259 76q96 0 174 -41.5t127 -120.5h6v68q0 46 19.5 70t54.5 24t54.5 -24t19.5 -70v-1356q0 -46 -19.5 -70t-54.5 -24t-54.5 24t-19.5 70v498h-6q-64 -83 -137.5 -122.5t-167.5 -39.5q-92 0 -169 31.5t-131 85.5t-91.5 125.5t-55.5 151
t-18 163.5zM858 545q0 79 -16.5 152.5t-51.5 138.5t-97 104t-144 39t-144 -39t-97 -104t-51.5 -138.5t-16.5 -152.5t16.5 -152.5t51.5 -138.5t97 -104t144 -39t144 39t97 104t51.5 138.5t16.5 152.5z" />
    <glyph glyph-name="r" unicode="r" horiz-adv-x="645" 
d="M283 612v-530q0 -46 -19.5 -70t-54.5 -24t-54.5 24t-19.5 70v926q0 46 19.5 70t54.5 24t54.5 -24t19.5 -70v-103h4q40 90 105 143.5t134 53.5q49 0 74 -23t25 -57q0 -31 -23.5 -49.5t-77.5 -30.5q-29 -6 -57 -17.5t-63 -37t-60.5 -60t-43 -90.5t-17.5 -125z" />
    <glyph glyph-name="s" unicode="s" horiz-adv-x="909" 
d="M432 1102q102 0 193.5 -25.5t142.5 -64.5t49 -78q0 -72 -74 -72q-18 0 -47.5 18.5t-58.5 40t-76.5 40t-97.5 18.5q-84 0 -148.5 -40.5t-64.5 -113.5q0 -90 100 -129l223 -90q63 -25 106 -49t84.5 -59.5t62 -84t20.5 -110.5q0 -142 -113.5 -228.5t-288.5 -86.5
q-84 0 -161 22.5t-125.5 55t-77.5 67.5t-29 62q0 20 22 45.5t48 25.5q19 0 42 -16t49.5 -38.5t58.5 -45.5t79 -39t101 -16q104 0 169.5 54t65.5 132q0 65 -39 101.5t-112 66.5l-254 104q-92 37 -141.5 94t-49.5 152q0 85 51.5 152.5t128.5 101t162 33.5z" />
    <glyph glyph-name="t" unicode="t" horiz-adv-x="491" 
d="M319 967v-885q0 -94 -73 -94q-35 0 -54.5 24t-19.5 70v885h-96q-33 0 -48.5 19t-15.5 42t15.5 42.5t48.5 19.5h96v239q0 96 74 96q73 0 73 -96v-239h97q33 0 48 -19t15 -43q0 -23 -15 -42t-48 -19h-97z" />
    <glyph glyph-name="u" unicode="u" 
d="M135 358v650q0 46 19.5 70t54.5 24t54.5 -24t19.5 -70v-613q0 -138 70 -211t196 -73t196 73t70 211v613q0 46 19.5 70t54.5 24t54.5 -24t19.5 -70v-650q0 -172 -117 -271t-297 -99t-297 99t-117 271z" />
    <glyph glyph-name="v" unicode="v" horiz-adv-x="872" 
d="M438 244l264 790q22 68 78 68q30 0 49 -20.5t19 -47.5q0 -22 -8 -43l-328 -948q-18 -55 -76 -55t-76 55l-327 948q-8 21 -8 43q0 27 18.5 47.5t48.5 20.5q56 0 78 -68l264 -790h4z" />
    <glyph glyph-name="w" unicode="w" horiz-adv-x="1515" 
d="M422 225l252 809q21 68 84 68t84 -68l252 -809h4l254 809q22 68 82 68q31 0 50 -20t19 -48q0 -14 -12 -55l-311 -926q-22 -65 -82 -65q-31 0 -52.5 19.5t-37.5 72.5l-248 792h-4l-256 -819q-20 -65 -82 -65q-22 0 -47 17t-35 48l-311 926q-13 44 -13 55q0 27 19.5 47.5
t50.5 20.5q60 0 82 -68l254 -809h4z" />
    <glyph glyph-name="x" unicode="x" horiz-adv-x="946" 
d="M473 471l-307 -432q-37 -51 -80 -51q-28 0 -47 19.5t-19 47.5t27 62l340 465l-295 391q-26 33 -26 61t19 48t46 20q43 0 80 -51l262 -359l262 359q37 51 80 51q28 0 47 -20t19 -48q0 -27 -27 -61l-295 -391l340 -465q27 -34 27 -62t-19 -47.5t-47 -19.5q-43 0 -80 51z
" />
    <glyph glyph-name="y" unicode="y" horiz-adv-x="872" 
d="M367 29l-334 962q-8 21 -8 43q0 27 18.5 47.5t48.5 20.5q56 0 78 -68l264 -790h4l264 790q22 68 78 68q30 0 49 -20.5t19 -47.5q0 -22 -8 -43l-471 -1360q-24 -73 -80 -73q-32 0 -50 18.5t-18 42.5q0 29 12 59z" />
    <glyph glyph-name="z" unicode="z" horiz-adv-x="909" 
d="M795 944l-547 -809h528q35 0 56.5 -19.5t21.5 -47.5t-22 -48t-56 -20h-633q-49 0 -67.5 18.5t-18.5 40.5q0 39 33 86l547 809h-479q-34 0 -56 20t-22 48t22 48t56 20h587q82 0 82 -56q0 -44 -32 -90z" />
    <glyph glyph-name="braceleft" unicode="{" horiz-adv-x="528" 
d="M195 1010v239q0 123 51 172t149 49h60q33 0 49 -17t16 -38t-16 -38t-49 -17h-43q-82 0 -82 -158v-225q0 -71 -19.5 -130t-48.5 -93t-52.5 -52t-41.5 -24v-4q18 -6 41.5 -24t52.5 -52t48.5 -93t19.5 -130v-225q0 -158 82 -158h43q33 0 49 -17t16 -38t-16 -38.5t-49 -17.5
h-60q-98 0 -149 49t-51 172v240q0 147 -30 213t-106 66q-21 0 -36 16t-15 39t15 39t36 16q76 0 106 66t30 213z" />
    <glyph glyph-name="bar" unicode="|" horiz-adv-x="454" 
d="M160 -512v2048q0 35 19.5 56.5t47.5 21.5t48 -22t20 -56v-2048q0 -34 -20 -56t-48 -22t-47.5 21.5t-19.5 56.5z" />
    <glyph glyph-name="braceright" unicode="}" horiz-adv-x="528" 
d="M199 977v225q0 158 -82 158h-43q-33 0 -49.5 17t-16.5 38t16.5 38t49.5 17h59q98 0 149.5 -49t51.5 -172v-239q0 -148 29.5 -213.5t105.5 -65.5q21 0 36 -16t15 -39t-15 -39t-36 -16q-76 0 -105.5 -65.5t-29.5 -213.5v-240q0 -123 -51.5 -172t-149.5 -49h-59
q-33 0 -49.5 17.5t-16.5 38.5t16.5 38t49.5 17h43q82 0 82 158v225q0 72 19.5 130.5t48 92.5t52 52t41.5 24v4q-18 6 -41.5 24t-52 52t-48 92.5t-19.5 130.5z" />
    <glyph glyph-name="asciitilde" unicode="~" horiz-adv-x="1228" 
d="M1087 604q0 -81 -82.5 -153t-193.5 -72q-54 0 -101 20t-108 58q-42 26 -63.5 37.5t-58.5 24.5t-70 13q-41 0 -70.5 -23t-43.5 -50.5t-37.5 -52t-53.5 -27.5q-26 -3 -45 14t-19 49q0 81 83 153.5t194 72.5q37 0 78 -13t64.5 -25.5t66.5 -37.5q7 -4 26.5 -15.5t27.5 -16.5
t25.5 -14t28 -13t26 -9.5t29.5 -7.5t29 -2q41 0 70.5 23t43.5 51t37.5 52.5t53.5 27.5q26 3 44.5 -14.5t18.5 -49.5z" />
    <glyph glyph-name="uni00A0" unicode="&#xa0;" horiz-adv-x="491" 
 />
    <glyph glyph-name="exclamdown" unicode="&#xa1;" horiz-adv-x="569" 
d="M379 1008q0 -37 -28.5 -66t-65.5 -29t-66 29t-29 66q0 38 29 66t66 28t65.5 -28t28.5 -66zM358 582v-869q0 -94 -73 -94q-35 0 -54.5 24t-19.5 70v869q0 46 19.5 70t54.5 24q73 0 73 -94z" />
    <glyph glyph-name="cent" unicode="&#xa2;" horiz-adv-x="909" 
d="M481 117v862q-65 -15 -114.5 -59.5t-77 -107t-40.5 -129.5t-13 -136q0 -71 13 -137.5t40.5 -128t77 -105.5t114.5 -59zM481 -125v115q-127 18 -221.5 104t-139 203t-44.5 246q0 97 26.5 189.5t75.5 171t128 132t175 66.5v112q0 41 37 41t37 -41v-112q127 -1 203 -36.5
t76 -88.5q0 -29 -17.5 -46.5t-48.5 -17.5q-21 0 -53 16t-73.5 32t-86.5 16v-866q54 0 98.5 14.5t73 28.5t45.5 14q27 0 41 -16t14 -43q0 -47 -89.5 -84t-182.5 -37v-113q0 -41 -37 -41t-37 41z" />
    <glyph glyph-name="sterling" unicode="&#xa3;" horiz-adv-x="1214" 
d="M350 135h713q35 0 56.5 -19.5t21.5 -47.5t-22 -48t-56 -20h-834q-38 0 -57.5 19t-19.5 47q0 34 43 75q44 43 73.5 77t62 83t49.5 104t17 115q0 73 -22 154h-223q-35 0 -56.5 19.5t-21.5 47.5t22 48t56 20h180q-65 115 -89 174.5t-24 124.5q0 161 119 261.5t307 100.5
q105 0 196 -38.5t147 -96t88 -120.5t32 -117q0 -33 -17 -52.5t-49 -19.5q-49 0 -65 51q-43 126 -123 192t-211 66q-115 0 -189.5 -61t-74.5 -184q0 -53 22 -112t80 -169h250q34 0 56 -20t22 -48t-21.5 -47.5t-56.5 -19.5h-209q23 -76 23 -162q0 -94 -45.5 -183t-149.5 -194z
" />
    <glyph glyph-name="currency" unicode="&#xa4;" 
d="M80 352l65 66q-104 118 -104 311t104 311l-65 66q-33 33 -33 61q0 25 18 45.5t44 20.5q30 0 67 -37l66 -66q125 107 307 107t307 -107l66 66q37 37 67 37q26 0 44 -20.5t18 -45.5q0 -28 -33 -61l-66 -66q105 -120 105 -311t-105 -311l66 -66q33 -33 33 -61
q0 -25 -18 -45.5t-44 -20.5q-30 0 -67 37l-66 66q-125 -107 -307 -107t-307 107l-66 -66q-37 -37 -67 -37q-26 0 -44 20.5t-18 45.5q0 28 33 61zM176 729q0 -161 107 -273t266 -112t266 112t107 273t-107 273t-266 112t-266 -112t-107 -273z" />
    <glyph glyph-name="yen" unicode="&#xa5;" 
d="M481 61v328h-288q-33 0 -48.5 19.5t-15.5 42.5t15.5 42t48.5 19h288v156h-288q-33 0 -48.5 19t-15.5 42t15.5 42.5t48.5 19.5h227l-311 520q-46 76 -46 102q0 25 16.5 41t45.5 16q45 0 68 -43l356 -598l356 598q23 43 68 43q29 0 45 -16t16 -41q0 -28 -45 -102l-309 -520
h225q33 0 48.5 -19.5t15.5 -42.5t-15.5 -42t-48.5 -19h-289v-156h289q33 0 48.5 -19t15.5 -42t-15.5 -42.5t-48.5 -19.5h-289v-328q0 -30 -20 -51.5t-47 -21.5t-47.5 21.5t-20.5 51.5z" />
    <glyph glyph-name="brokenbar" unicode="&#xa6;" horiz-adv-x="454" 
d="M160 743v562q0 34 19.5 55.5t47.5 21.5q29 0 48.5 -21.5t19.5 -55.5v-562q0 -34 -19.5 -55.5t-48.5 -21.5q-28 0 -47.5 21.5t-19.5 55.5zM160 -281v562q0 34 19.5 55.5t47.5 21.5q29 0 48.5 -21.5t19.5 -55.5v-562q0 -34 -19.5 -55.5t-48.5 -21.5q-28 0 -47.5 21.5
t-19.5 55.5z" />
    <glyph glyph-name="section" unicode="&#xa7;" horiz-adv-x="1138" 
d="M446 1004l334 -166q53 -27 90 -49.5t78 -56.5t65.5 -70.5t40 -87.5t13.5 -111q-4 -198 -231 -340q137 -92 137 -260q0 -95 -60.5 -165.5t-155 -105t-206.5 -34.5q-74 0 -137 13t-106.5 34.5t-77.5 50t-54.5 58t-33.5 61.5t-18 57t-5 47q0 27 26 47.5t56 20.5q67 0 78 -92
q7 -64 76 -113t194 -49q47 0 91 9t84.5 28t64.5 54.5t24 82.5q0 64 -32 99.5t-132 88.5l-305 156q-133 68 -202.5 153t-69.5 201q0 72 19 126t59.5 93.5t80.5 64.5t105 56q-80 52 -120 109t-40 131q0 69 26 125t68 92.5t97 61.5t111 35.5t112 10.5q75 0 145 -18t129 -53
t95 -93.5t36 -131.5q0 -46 -19.5 -74.5t-47.5 -28.5q-32 0 -54 23.5t-26 72.5q-6 68 -78.5 118t-187.5 50q-110 0 -185.5 -49t-72.5 -131q0 -35 30.5 -77.5t91.5 -73.5zM373 360l350 -180q74 36 135.5 116t61.5 165q0 77 -35.5 128t-108.5 91l-311 160q-43 -14 -82.5 -34
t-78 -50.5t-62 -73.5t-23.5 -92q0 -84 34 -135t120 -95z" />
    <glyph glyph-name="dieresis" unicode="&#xa8;" horiz-adv-x="417" 
d="M-74 1311q0 41 30 70.5t71 29.5t70.5 -29.5t29.5 -70.5t-29.5 -71t-70.5 -30t-71 30t-30 71zM291 1311q0 41 29.5 70.5t70.5 29.5t71 -29.5t30 -70.5t-30 -71t-71 -30t-70.5 30t-29.5 71z" />
    <glyph glyph-name="copyright" unicode="&#xa9;" horiz-adv-x="1638" 
d="M526 723q0 -149 82.5 -244.5t222.5 -95.5q60 0 104 21.5t68.5 52.5t43 61.5t39.5 52t47 21.5q51 0 51 -55q0 -25 -13.5 -59t-43 -72.5t-69 -70.5t-99.5 -53.5t-128 -21.5q-196 0 -318 131t-122 328q0 201 116.5 330t311.5 129q89 0 164.5 -30t119.5 -73.5t68.5 -85.5
t24.5 -71q0 -64 -61 -64q-26 0 -46 15t-32 37t-31.5 48.5t-42.5 48.5t-66.5 37t-101.5 15q-133 0 -211 -93.5t-78 -238.5zM78 729q0 151 58.5 288.5t157.5 236.5t236.5 157.5t288.5 58.5q202 0 372.5 -99t270 -269.5t99.5 -372.5t-99.5 -372.5t-270 -269.5t-372.5 -99
q-151 0 -288.5 58.5t-236.5 157.5t-157.5 236.5t-58.5 288.5zM213 729q0 -126 48.5 -240.5t130.5 -197t193.5 -131.5t233.5 -49t233.5 49t193.5 131.5t130.5 197t48.5 240.5t-48.5 240.5t-130.5 197.5t-193.5 132t-233.5 49t-233.5 -49t-193.5 -132t-130.5 -197.5
t-48.5 -240.5z" />
    <glyph glyph-name="ordfeminine" unicode="&#xaa;" horiz-adv-x="739" 
d="M659 1413v-555q0 -25 -17 -41t-44 -16q-29 0 -45 16t-16 41v47h-5q-27 -49 -78 -76.5t-112 -27.5q-88 0 -157.5 49.5t-104.5 124.5t-35 160q0 133 82.5 234t214.5 101q123 0 190 -88h5v31q0 25 16 41t45 16q27 0 44 -16t17 -41zM537 1137q0 235 -185 235
q-86 0 -129 -70.5t-43 -164.5q0 -58 17 -110.5t57.5 -90t97.5 -37.5q185 0 185 238z" />
    <glyph glyph-name="guillemotleft" unicode="&#xab;" horiz-adv-x="796" 
d="M578 193l-166 292q-23 45 -23 60q0 14 23 59l166 293q17 29 33 43t40 14q28 0 45 -16.5t17 -36.5q0 -23 -21 -59l-172 -297l172 -297q21 -36 21 -60q0 -20 -17 -36.5t-45 -16.5q-24 0 -40 14t-33 44zM272 193l-166 292q-22 43 -22 60q0 16 22 59l166 293q17 29 33 43
t41 14q28 0 45 -16.5t17 -36.5q0 -23 -21 -59l-172 -297l172 -297q21 -36 21 -60q0 -20 -17 -36.5t-45 -16.5q-24 0 -40.5 14.5t-33.5 43.5z" />
    <glyph glyph-name="logicalnot" unicode="&#xac;" horiz-adv-x="1228" 
d="M997 297v358h-823q-34 0 -56 20t-22 48t22 48t56 20h856q56 0 79.5 -24t23.5 -73v-397q0 -34 -20 -56t-48 -22t-48 22t-20 56z" />
    <glyph glyph-name="uni00AD" unicode="&#xad;" horiz-adv-x="720" 
d="M162 612h397q35 0 56.5 -19.5t21.5 -47.5t-22 -48t-56 -20h-397q-34 0 -56 20t-22 48t21.5 47.5t56.5 19.5z" />
    <glyph glyph-name="registered" unicode="&#xae;" horiz-adv-x="1638" 
d="M664 666v-308q0 -36 -16.5 -60t-45.5 -24q-28 0 -44.5 24t-16.5 60v754q0 18 8.5 26.5t30.5 8.5h288q297 0 297 -242q0 -109 -59 -166t-148 -69l181 -281q26 -43 26 -63t-16.5 -36t-44.5 -16q-41 0 -72 50l-209 342h-159zM664 1049v-285h151q43 0 70 2t60 10t52 23
t32 43.5t13 68.5q0 138 -194 138h-184zM78 729q0 151 58.5 288.5t157.5 236.5t236.5 157.5t288.5 58.5q202 0 372.5 -99t270 -269.5t99.5 -372.5t-99.5 -372.5t-270 -269.5t-372.5 -99q-151 0 -288.5 58.5t-236.5 157.5t-157.5 236.5t-58.5 288.5zM213 729
q0 -126 48.5 -240.5t130.5 -197t193.5 -131.5t233.5 -49t233.5 49t193.5 131.5t130.5 197t48.5 240.5t-48.5 240.5t-130.5 197.5t-193.5 132t-233.5 49t-233.5 -49t-193.5 -132t-130.5 -197.5t-48.5 -240.5z" />
    <glyph glyph-name="macron" unicode="&#xaf;" horiz-adv-x="417" 
d="M401 1223h-385q-94 0 -94 73q0 35 24 54.5t70 19.5h385q46 0 70.5 -19.5t24.5 -54.5t-24.5 -54t-70.5 -19z" />
    <glyph glyph-name="degree" unicode="&#xb0;" horiz-adv-x="819" 
d="M117 1178q0 123 85 207.5t208 84.5t207.5 -84.5t84.5 -207.5t-84.5 -208t-207.5 -85t-208 85t-85 208zM215 1178q0 -80 57.5 -137.5t137.5 -57.5q79 0 136.5 57.5t57.5 137.5t-57 137t-137 57t-137.5 -57.5t-57.5 -136.5z" />
    <glyph glyph-name="plusminus" unicode="&#xb1;" horiz-adv-x="1228" 
d="M547 692v266q0 35 19.5 56.5t47.5 21.5t48 -22t20 -56v-266h373q35 0 56.5 -19.5t21.5 -47.5t-22 -48t-56 -20h-373v-266q0 -34 -20 -56t-48 -22t-47.5 21.5t-19.5 56.5v266h-373q-34 0 -56 20t-22 48t21.5 47.5t56.5 19.5h373zM1055 0h-881q-34 0 -56 20t-22 48
t21.5 47.5t56.5 19.5h881q35 0 56.5 -19.5t21.5 -47.5t-22 -48t-56 -20z" />
    <glyph glyph-name="twosuperior" unicode="&#xb2;" horiz-adv-x="712" 
d="M260 707h332q23 0 37 -16t14 -40t-14 -39.5t-37 -15.5h-436q-28 0 -43 12.5t-15 30.5q0 24 25 59l283 385q81 109 81 172q0 48 -39 76.5t-96 28.5q-135 0 -159 -160q-4 -30 -20 -41.5t-46 -11.5q-25 0 -41 14.5t-16 38.5q0 122 74 196t208 74q133 0 202 -58t69 -144
q0 -51 -21.5 -97.5t-69.5 -109.5z" />
    <glyph glyph-name="threesuperior" unicode="&#xb3;" horiz-adv-x="712" 
d="M590 1251q0 -63 -29 -112.5t-80 -75.5q160 -60 160 -211q0 -122 -76 -195t-219 -73q-69 0 -124.5 19.5t-86.5 49t-47 60t-16 57.5q0 26 16.5 40.5t40.5 14.5q15 0 25.5 -2.5t24 -15.5t22.5 -37q30 -76 147 -76q66 0 112 44.5t46 119.5q0 61 -37.5 93.5t-103.5 37.5
q-62 5 -62 45q0 26 16.5 38t55.5 22q80 19 80 137q0 129 -117 129q-46 0 -76 -26.5t-33 -69.5q-3 -58 -65 -58q-23 0 -40.5 16t-17.5 42q0 80 62 143t176 63q126 0 186 -62.5t60 -156.5z" />
    <glyph glyph-name="acute" unicode="&#xb4;" horiz-adv-x="417" 
d="M41 1370l283 109q30 12 53 12q25 0 41 -22.5t16 -47.5q0 -14 -2 -22.5t-15.5 -22t-39.5 -22.5l-283 -109q-30 -12 -53 -12q-25 0 -41 22.5t-16 47.5q0 14 2 22.5t15.5 22t39.5 22.5z" />
    <glyph glyph-name="mu" unicode="&#xb5;" 
d="M135 -348v1356q0 46 19.5 70t54.5 24t54.5 -24t19.5 -70v-613q0 -138 70 -211t196 -73t196 73t70 211v613q0 46 19.5 70t54.5 24t54.5 -24t19.5 -70v-947q0 -31 -21.5 -52t-52.5 -21t-52.5 21t-21.5 52q-106 -73 -266 -73q-157 0 -262 114h-4v-450q0 -46 -19.5 -70
t-54.5 -24t-54.5 24t-19.5 70z" />
    <glyph glyph-name="paragraph" unicode="&#xb6;" horiz-adv-x="1228" 
d="M528 -365v1049q-187 0 -308.5 109.5t-121.5 271.5q0 195 123 294t344 99h375q68 0 90.5 -20.5t22.5 -85.5v-1717q0 -34 -19.5 -55.5t-48.5 -21.5q-28 0 -47.5 21.5t-19.5 55.5v1700h-254v-1700q0 -34 -19.5 -55.5t-48.5 -21.5t-48.5 21.5t-19.5 55.5z" />
    <glyph glyph-name="periodcentered" unicode="&#xb7;" horiz-adv-x="491" 
d="M152 653q0 37 28.5 66t65.5 29t65.5 -29t28.5 -66t-28.5 -65.5t-65.5 -28.5t-65.5 28.5t-28.5 65.5z" />
    <glyph glyph-name="cedilla" unicode="&#xb8;" horiz-adv-x="417" 
d="M164 0h92l-53 -80l4 -4q21 6 49 6q56 0 91.5 -34.5t35.5 -80.5q0 -75 -58 -122t-149 -47q-153 0 -153 73q0 49 53 49q17 0 50.5 -12t78.5 -12q26 0 40.5 14.5t14.5 36.5q0 33 -23 43t-67 10q-45 0 -61.5 4.5t-16.5 20.5q0 19 31 72z" />
    <glyph glyph-name="onesuperior" unicode="&#xb9;" horiz-adv-x="468" 
d="M205 1348h-115q-26 0 -40.5 15.5t-14.5 39.5t14.5 39.5t40.5 15.5h182q25 0 40.5 -14.5t15.5 -34.5v-764q0 -30 -16.5 -45.5t-45.5 -15.5q-61 0 -61 61v703z" />
    <glyph glyph-name="ordmasculine" unicode="&#xba;" horiz-adv-x="712" 
d="M180 1137q0 -58 17 -110t58.5 -90t100.5 -38t100.5 38t58.5 89t17 107q0 60 -17 112.5t-58.5 89.5t-100.5 37t-100.5 -37t-58.5 -88.5t-17 -109.5zM45 1137q0 134 83 233.5t228 99.5q99 0 171.5 -49.5t106.5 -124.5t34 -163q0 -63 -20 -121.5t-58 -106t-98.5 -76
t-135.5 -28.5q-98 0 -170.5 49.5t-106.5 124.5t-34 162z" />
    <glyph glyph-name="guillemotright" unicode="&#xbb;" horiz-adv-x="796" 
d="M219 897l166 -293q23 -45 23 -59q0 -15 -23 -60l-166 -292q-17 -29 -33.5 -43.5t-40.5 -14.5q-28 0 -44.5 16.5t-16.5 36.5q0 26 20 60l172 297l-172 297q-20 34 -20 59q0 20 16.5 36.5t44.5 16.5q25 0 41 -14t33 -43zM524 897l166 -293q23 -45 23 -59q0 -15 -23 -60
l-166 -292q-17 -30 -33 -44t-40 -14q-28 0 -45 16.5t-17 36.5q0 24 21 60l172 297l-172 297q-21 36 -21 59q0 20 17 36.5t45 16.5q24 0 40 -14t33 -43z" />
    <glyph glyph-name="onequarter" unicode="&#xbc;" horiz-adv-x="1648" 
d="M1436 207v-162q0 -23 -16.5 -40t-45.5 -17q-28 0 -44.5 17t-16.5 40v162h-361q-59 0 -59 51q0 23 29 70l307 483q41 63 117 63q41 0 65.5 -22.5t24.5 -69.5v-465h45q23 0 37 -15t14 -40t-14 -40t-37 -15h-45zM1313 317v459h-4l-287 -459h291zM393 78l533 1362
q20 51 63 51q26 0 42 -13.5t16 -33.5q0 -15 -19 -64l-532 -1362q-20 -51 -64 -51q-26 0 -41.5 13t-15.5 34q0 17 18 64zM258 1348h-115q-26 0 -40.5 15.5t-14.5 39.5t14.5 39.5t40.5 15.5h183q25 0 40 -14.5t15 -34.5v-764q0 -30 -16.5 -45.5t-45.5 -15.5q-61 0 -61 61v703z
" />
    <glyph glyph-name="onehalf" unicode="&#xbd;" horiz-adv-x="1648" 
d="M393 78l533 1362q20 51 63 51q26 0 42 -13.5t16 -33.5q0 -15 -19 -64l-532 -1362q-20 -51 -64 -51q-26 0 -41.5 13t-15.5 34q0 17 18 64zM258 1348h-115q-26 0 -40.5 15.5t-14.5 39.5t14.5 39.5t40.5 15.5h183q25 0 40 -14.5t15 -34.5v-764q0 -30 -16.5 -45.5
t-45.5 -15.5q-61 0 -61 61v703zM1102 111h332q23 0 37 -16t14 -40t-14 -39.5t-37 -15.5h-437q-28 0 -42.5 12.5t-14.5 30.5q0 24 25 59l282 385q82 110 82 172q0 48 -39 76.5t-96 28.5q-136 0 -160 -160q-4 -30 -19.5 -41.5t-45.5 -11.5q-25 0 -41.5 14.5t-16.5 38.5
q0 121 74.5 195.5t208.5 74.5q133 0 201.5 -58t68.5 -144q0 -51 -21.5 -97.5t-68.5 -109.5z" />
    <glyph glyph-name="threequarters" unicode="&#xbe;" horiz-adv-x="1648" 
d="M1436 207v-162q0 -23 -16.5 -40t-45.5 -17q-28 0 -44.5 17t-16.5 40v162h-361q-59 0 -59 51q0 23 29 70l307 483q41 63 117 63q41 0 65.5 -22.5t24.5 -69.5v-465h45q23 0 37 -15t14 -40t-14 -40t-37 -15h-45zM1313 317v459h-4l-287 -459h291zM496 78l532 1362
q20 51 64 51q26 0 41.5 -13t15.5 -34q0 -15 -19 -64l-532 -1362q-20 -51 -63 -51q-26 0 -42 13.5t-16 33.5q0 15 19 64zM551 1251q0 -63 -29 -112.5t-80 -75.5q160 -60 160 -211q0 -122 -76 -195t-219 -73q-69 0 -124.5 19.5t-86.5 49t-47 60t-16 57.5q0 26 16.5 40.5
t40.5 14.5q15 0 25.5 -2.5t24 -15.5t22.5 -37q30 -76 147 -76q66 0 112 44.5t46 119.5q0 61 -37.5 93.5t-103.5 37.5q-62 5 -62 45q0 26 16.5 38t55.5 22q80 19 80 137q0 129 -117 129q-46 0 -76 -26.5t-33 -69.5q-3 -58 -65 -58q-23 0 -40 16t-17 42q0 80 61.5 143
t175.5 63q126 0 186 -62.5t60 -156.5z" />
    <glyph glyph-name="questiondown" unicode="&#xbf;" horiz-adv-x="909" 
d="M551 586v-260q0 -42 -14 -59t-66 -27q-128 -26 -192 -92t-64 -164q0 -55 22.5 -100.5t58.5 -73t79.5 -42t87.5 -14.5q85 0 156.5 43t87.5 119q10 50 26.5 67t52.5 17q33 0 50.5 -22.5t17.5 -55.5q0 -87 -54.5 -157.5t-143.5 -108t-193 -37.5q-180 0 -294 100.5
t-114 260.5q0 73 19 132t50.5 100t78 72.5t94 50.5t106.5 34v217q0 46 19.5 70t54.5 24t54.5 -24t19.5 -70zM571 1008q0 -38 -28 -66.5t-66 -28.5t-66 28.5t-28 66.5t28 66t66 28t66 -28t28 -66z" />
    <glyph glyph-name="Agrave" unicode="&#xc0;" horiz-adv-x="1253" 
d="M272 317l-96 -262q-12 -25 -18.5 -35.5t-23 -21t-40.5 -10.5q-31 0 -48 16t-17 41q0 26 14 61l469 1258q9 24 15.5 37.5t20 32t33.5 27.5t46 9t45.5 -9t33 -28t20 -31.5t15.5 -37.5l469 -1258q15 -37 15 -61t-17.5 -40.5t-48.5 -16.5q-35 0 -52 17t-30 50l-96 262h-709z
M932 453l-303 825h-4l-303 -825h610zM741 1573l-282 108q-26 9 -40 22.5t-16 22.5t-2 23q0 25 16.5 47.5t41.5 22.5q21 0 53 -13l283 -108q26 -9 39.5 -22.5t15.5 -22.5t2 -23q0 -25 -16 -47t-41 -22q-24 0 -54 12z" />
    <glyph glyph-name="Aacute" unicode="&#xc1;" horiz-adv-x="1253" 
d="M272 317l-96 -262q-12 -25 -18.5 -35.5t-23 -21t-40.5 -10.5q-31 0 -48 16t-17 41q0 26 14 61l469 1258q9 24 15.5 37.5t20 32t33.5 27.5t46 9t45.5 -9t33 -28t20 -31.5t15.5 -37.5l469 -1258q15 -37 15 -61t-17.5 -40.5t-48.5 -16.5q-35 0 -52 17t-30 50l-96 262h-709z
M932 453l-303 825h-4l-303 -825h610zM459 1698l282 108q33 13 54 13q25 0 41 -22.5t16 -47.5q0 -14 -2 -23t-15.5 -22.5t-39.5 -22.5l-283 -108q-30 -12 -53 -12q-25 0 -41.5 22t-16.5 47q0 14 2 23t16 22.5t40 22.5z" />
    <glyph glyph-name="Acircumflex" unicode="&#xc2;" horiz-adv-x="1253" 
d="M272 317l-96 -262q-12 -25 -18.5 -35.5t-23 -21t-40.5 -10.5q-31 0 -48 16t-17 41q0 26 14 61l469 1258q9 24 15.5 37.5t20 32t33.5 27.5t46 9t45.5 -9t33 -28t20 -31.5t15.5 -37.5l469 -1258q15 -37 15 -61t-17.5 -40.5t-48.5 -16.5q-35 0 -52 17t-30 50l-96 262h-709z
M932 453l-303 825h-4l-303 -825h610zM627 1790l260 -100q26 -11 40 -25.5t16.5 -25t2.5 -25.5q0 -23 -17.5 -42.5t-43.5 -19.5q-21 0 -54 11l-204 92l-205 -92q-33 -11 -53 -11q-26 0 -44 19.5t-18 42.5q0 15 2.5 25.5t17 25t40.5 25.5z" />
    <glyph glyph-name="Atilde" unicode="&#xc3;" horiz-adv-x="1253" 
d="M272 317l-96 -262q-12 -25 -18.5 -35.5t-23 -21t-40.5 -10.5q-31 0 -48 16t-17 41q0 26 14 61l469 1258q9 24 15.5 37.5t20 32t33.5 27.5t46 9t45.5 -9t33 -28t20 -31.5t15.5 -37.5l469 -1258q15 -37 15 -61t-17.5 -40.5t-48.5 -16.5q-35 0 -52 17t-30 50l-96 262h-709z
M932 453l-303 825h-4l-303 -825h610zM504 1638q-28 0 -58.5 -24.5t-54.5 -24.5q-59 0 -59 56q0 50 50 89.5t114 39.5q44 0 128 -28t126 -28q28 0 58 25.5t54 25.5q60 0 60 -67q0 -41 -50.5 -79t-113.5 -38q-44 0 -128 26.5t-126 26.5z" />
    <glyph glyph-name="Adieresis" unicode="&#xc4;" horiz-adv-x="1253" 
d="M272 317l-96 -262q-12 -25 -18.5 -35.5t-23 -21t-40.5 -10.5q-31 0 -48 16t-17 41q0 26 14 61l469 1258q9 24 15.5 37.5t20 32t33.5 27.5t46 9t45.5 -9t33 -28t20 -31.5t15.5 -37.5l469 -1258q15 -37 15 -61t-17.5 -40.5t-48.5 -16.5q-35 0 -52 17t-30 50l-96 262h-709z
M932 453l-303 825h-4l-303 -825h610zM344 1638q0 41 29.5 71t70.5 30t71 -30t30 -71t-30 -70.5t-71 -29.5t-70.5 29.5t-29.5 70.5zM709 1638q0 41 29.5 71t70.5 30t70.5 -30t29.5 -71t-29.5 -70.5t-70.5 -29.5t-70.5 29.5t-29.5 70.5z" />
    <glyph glyph-name="Aring" unicode="&#xc5;" horiz-adv-x="1253" 
d="M272 317l-96 -262q-12 -25 -18.5 -35.5t-23 -21t-40.5 -10.5q-31 0 -48 16t-17 41q0 26 14 61l469 1258q9 24 15.5 37.5t20 32t33.5 27.5t46 9t45.5 -9t33 -28t20 -31.5t15.5 -37.5l469 -1258q15 -37 15 -61t-17.5 -40.5t-48.5 -16.5q-35 0 -52 17t-30 50l-96 262h-709z
M932 453l-303 825h-4l-303 -825h610zM436 1698q0 78 56.5 134t134.5 56t134 -56t56 -134t-56 -134.5t-134 -56.5t-134.5 56.5t-56.5 134.5zM522 1698q0 -43 31 -74t74 -31t73.5 31t30.5 74t-30.5 73.5t-73.5 30.5t-74 -30.5t-31 -73.5z" />
    <glyph glyph-name="AE" unicode="&#xc6;" horiz-adv-x="1517" 
d="M928 659v-524h446q35 0 56.5 -19.5t21.5 -47.5t-22 -48t-56 -20h-520q-31 0 -52.5 23.5t-21.5 60.5v244h-477l-123 -250q-15 -26 -26 -42.5t-31.5 -32t-42.5 -15.5q-23 0 -40 15.5t-17 39.5q0 21 6.5 39t29.5 63l635 1276q18 37 54 37h606q35 0 56.5 -19.5t21.5 -47.5
t-22 -48t-56 -20h-424v-528h405q34 0 56 -20t22 -48t-22 -48t-56 -20h-407zM780 451v835h-4l-414 -835h418z" />
    <glyph glyph-name="Ccedilla" unicode="&#xc7;" horiz-adv-x="1214" 
d="M750 -10l-45 -70l4 -4q21 6 49 6q56 0 91.5 -34.5t35.5 -80.5q0 -75 -58 -122t-149 -47q-72 0 -113 18.5t-41 54.5q0 49 54 49q17 0 50.5 -12t78.5 -12q26 0 40.5 14.5t14.5 36.5q0 33 -23 43t-67 10q-45 0 -61.5 4.5t-16.5 20.5q0 19 31 72l34 55q-144 12 -256 74
t-181 160t-104.5 220.5t-35.5 262.5q0 117 24.5 226.5t76 207t125 170t179 115t230.5 42.5q87 0 172 -24t142 -58.5t92.5 -71.5t35.5 -65q0 -36 -19.5 -56.5t-45.5 -20.5q-16 0 -39 16.5t-52 40t-66.5 47.5t-96 40.5t-125.5 16.5q-89 0 -166.5 -36.5t-133 -98.5t-95 -142.5
t-59 -169.5t-19.5 -179q0 -92 17.5 -176.5t57 -159.5t96.5 -130.5t141 -87.5t187 -32q87 0 160 22.5t110 49t69 49t48 22.5q62 0 62 -73q0 -24 -33 -57t-88.5 -65.5t-141 -56t-177.5 -24.5z" />
    <glyph glyph-name="Egrave" unicode="&#xc8;" horiz-adv-x="909" 
d="M283 659v-524h446q35 0 56.5 -19.5t21.5 -47.5t-22 -48t-56 -20h-504q-48 0 -69 19.5t-21 58.5v1302q0 39 21 58.5t69 19.5h484q34 0 55.5 -19.5t21.5 -47.5q0 -29 -21.5 -48.5t-55.5 -19.5h-424v-528h405q34 0 56 -20t22 -48t-22 -48t-56 -20h-407zM569 1573l-282 108
q-26 9 -40 22.5t-16 22.5t-2 23q0 25 16.5 47.5t41.5 22.5q21 0 53 -13l283 -108q26 -9 39.5 -22.5t15.5 -22.5t2 -23q0 -25 -16 -47t-41 -22q-24 0 -54 12z" />
    <glyph glyph-name="Eacute" unicode="&#xc9;" horiz-adv-x="909" 
d="M283 659v-524h446q35 0 56.5 -19.5t21.5 -47.5t-22 -48t-56 -20h-504q-48 0 -69 19.5t-21 58.5v1302q0 39 21 58.5t69 19.5h484q34 0 55.5 -19.5t21.5 -47.5q0 -29 -21.5 -48.5t-55.5 -19.5h-424v-528h405q34 0 56 -20t22 -48t-22 -48t-56 -20h-407zM287 1698l282 108
q32 13 54 13q25 0 41 -22.5t16 -47.5q0 -14 -2 -23t-15.5 -22.5t-39.5 -22.5l-283 -108q-30 -12 -53 -12q-25 0 -41.5 22t-16.5 47q0 14 2 23t16 22.5t40 22.5z" />
    <glyph glyph-name="Ecircumflex" unicode="&#xca;" horiz-adv-x="909" 
d="M283 659v-524h446q35 0 56.5 -19.5t21.5 -47.5t-22 -48t-56 -20h-504q-48 0 -69 19.5t-21 58.5v1302q0 39 21 58.5t69 19.5h484q34 0 55.5 -19.5t21.5 -47.5q0 -29 -21.5 -48.5t-55.5 -19.5h-424v-528h405q34 0 56 -20t22 -48t-22 -48t-56 -20h-407zM455 1790l260 -100
q26 -11 40 -25.5t16.5 -25t2.5 -25.5q0 -23 -17.5 -42.5t-43.5 -19.5q-21 0 -54 11l-204 92l-205 -92q-33 -11 -53 -11q-26 0 -44 19.5t-18 42.5q0 15 2.5 25.5t17 25t40.5 25.5z" />
    <glyph glyph-name="Edieresis" unicode="&#xcb;" horiz-adv-x="909" 
d="M283 659v-524h446q35 0 56.5 -19.5t21.5 -47.5t-22 -48t-56 -20h-504q-48 0 -69 19.5t-21 58.5v1302q0 39 21 58.5t69 19.5h484q34 0 55.5 -19.5t21.5 -47.5q0 -29 -21.5 -48.5t-55.5 -19.5h-424v-528h405q34 0 56 -20t22 -48t-22 -48t-56 -20h-407zM172 1638
q0 41 29.5 71t70.5 30t71 -30t30 -71t-30 -70.5t-71 -29.5t-70.5 29.5t-29.5 70.5zM537 1638q0 41 29.5 71t70.5 30t70.5 -30t29.5 -71t-29.5 -70.5t-70.5 -29.5t-70.5 29.5t-29.5 70.5z" />
    <glyph glyph-name="Igrave" unicode="&#xcc;" horiz-adv-x="417" 
d="M283 1376v-1294q0 -46 -19.5 -70t-54.5 -24t-54.5 24t-19.5 70v1294q0 46 19.5 70t54.5 24t54.5 -24t19.5 -70zM324 1573l-283 108q-26 9 -39.5 22.5t-15.5 22.5t-2 23q0 25 16 47.5t41 22.5q21 0 53 -13l283 -108q26 -9 39.5 -22.5t15.5 -22.5t2 -23q0 -25 -16 -47
t-41 -22q-23 0 -53 12z" />
    <glyph glyph-name="Iacute" unicode="&#xcd;" horiz-adv-x="417" 
d="M283 1376v-1294q0 -46 -19.5 -70t-54.5 -24t-54.5 24t-19.5 70v1294q0 46 19.5 70t54.5 24t54.5 -24t19.5 -70zM41 1698l283 108q32 13 53 13q25 0 41 -22.5t16 -47.5q0 -14 -2 -23t-15.5 -22.5t-39.5 -22.5l-283 -108q-30 -12 -53 -12q-25 0 -41 22t-16 47q0 14 2 23
t15.5 22.5t39.5 22.5z" />
    <glyph glyph-name="Icircumflex" unicode="&#xce;" horiz-adv-x="417" 
d="M283 1376v-1294q0 -46 -19.5 -70t-54.5 -24t-54.5 24t-19.5 70v1294q0 46 19.5 70t54.5 24t54.5 -24t19.5 -70zM209 1790l260 -100q26 -11 40 -25.5t16.5 -25t2.5 -25.5q0 -23 -17.5 -42.5t-43.5 -19.5q-20 0 -53 11l-205 92l-205 -92q-33 -11 -53 -11q-26 0 -44 19.5
t-18 42.5q0 15 2.5 25.5t17 25t40.5 25.5z" />
    <glyph glyph-name="Idieresis" unicode="&#xcf;" horiz-adv-x="417" 
d="M283 1376v-1294q0 -46 -19.5 -70t-54.5 -24t-54.5 24t-19.5 70v1294q0 46 19.5 70t54.5 24t54.5 -24t19.5 -70zM-74 1638q0 41 30 71t71 30t70.5 -30t29.5 -71t-29.5 -70.5t-70.5 -29.5t-71 29.5t-30 70.5zM291 1638q0 41 29.5 71t70.5 30t71 -30t30 -71t-30 -70.5
t-71 -29.5t-70.5 29.5t-29.5 70.5z" />
    <glyph glyph-name="Eth" unicode="&#xd0;" horiz-adv-x="1290" 
d="M283 1323v-520h288q35 0 57.5 -20t22.5 -48t-22.5 -47.5t-57.5 -19.5h-288v-533h286q104 0 185.5 31t136.5 85t91 132t51.5 167t15.5 195q0 87 -15 167.5t-51 156t-88.5 131.5t-134 89.5t-182.5 33.5h-295zM135 74v594h-57q-35 0 -57.5 19.5t-22.5 47.5t22.5 48t57.5 20
h57v581q0 31 21.5 52.5t52.5 21.5h381q128 0 233.5 -44.5t175.5 -117.5t118 -170t69.5 -199t21.5 -208q0 -165 -48.5 -301.5t-133.5 -227t-200 -140.5t-248 -50h-369q-31 0 -52.5 21.5t-21.5 52.5z" />
    <glyph glyph-name="Ntilde" unicode="&#xd1;" horiz-adv-x="1363" 
d="M283 1200v-1118q0 -46 -19.5 -70t-54.5 -24t-54.5 24t-19.5 70v1302q0 41 21 63.5t53 22.5q49 0 86 -53l782 -1145h4v1104q0 46 19.5 70t54.5 24t54.5 -24t19.5 -70v-1298q0 -90 -70 -90q-27 0 -43 11.5t-37 41.5l-792 1159h-4zM559 1638q-28 0 -58.5 -24.5t-54.5 -24.5
q-59 0 -59 56q0 50 50 89.5t114 39.5q45 0 129 -28t125 -28q28 0 58.5 25.5t54.5 25.5q59 0 59 -67q0 -41 -50.5 -79t-113.5 -38q-45 0 -129 26.5t-125 26.5z" />
    <glyph glyph-name="Ograve" unicode="&#xd2;" horiz-adv-x="1400" 
d="M82 729q0 113 24.5 219.5t75 201.5t122.5 166t174 112.5t222 41.5t222 -41.5t174 -112.5t123 -166t75.5 -201.5t24.5 -219.5t-24.5 -219.5t-75.5 -201.5t-123 -166t-174 -112.5t-222 -41.5t-222 41.5t-174 112.5t-122.5 166t-75 201.5t-24.5 219.5zM700 123q99 0 179 37
t131 97t85.5 140.5t49 163t14.5 168.5t-14.5 168.5t-49 163t-85.5 140.5t-131 97t-179 37t-178.5 -37t-130.5 -97t-85.5 -140.5t-49 -163t-14.5 -168.5t14.5 -168.5t49 -163t85.5 -140.5t130.5 -97t178.5 -37zM815 1573l-283 108q-26 9 -39.5 22.5t-15.5 22.5t-2 23
q0 25 16 47.5t41 22.5q22 0 54 -13l282 -108q26 -9 40 -22.5t16 -22.5t2 -23q0 -25 -16.5 -47t-41.5 -22q-23 0 -53 12z" />
    <glyph glyph-name="Oacute" unicode="&#xd3;" horiz-adv-x="1400" 
d="M82 729q0 113 24.5 219.5t75 201.5t122.5 166t174 112.5t222 41.5t222 -41.5t174 -112.5t123 -166t75.5 -201.5t24.5 -219.5t-24.5 -219.5t-75.5 -201.5t-123 -166t-174 -112.5t-222 -41.5t-222 41.5t-174 112.5t-122.5 166t-75 201.5t-24.5 219.5zM700 123q99 0 179 37
t131 97t85.5 140.5t49 163t14.5 168.5t-14.5 168.5t-49 163t-85.5 140.5t-131 97t-179 37t-178.5 -37t-130.5 -97t-85.5 -140.5t-49 -163t-14.5 -168.5t14.5 -168.5t49 -163t85.5 -140.5t130.5 -97t178.5 -37zM532 1698l283 108q33 13 53 13q25 0 41.5 -22.5t16.5 -47.5
q0 -14 -2 -23t-16 -22.5t-40 -22.5l-282 -108q-30 -12 -54 -12q-25 0 -41 22t-16 47q0 14 2 23t15.5 22.5t39.5 22.5z" />
    <glyph glyph-name="Ocircumflex" unicode="&#xd4;" horiz-adv-x="1400" 
d="M82 729q0 113 24.5 219.5t75 201.5t122.5 166t174 112.5t222 41.5t222 -41.5t174 -112.5t123 -166t75.5 -201.5t24.5 -219.5t-24.5 -219.5t-75.5 -201.5t-123 -166t-174 -112.5t-222 -41.5t-222 41.5t-174 112.5t-122.5 166t-75 201.5t-24.5 219.5zM700 123q99 0 179 37
t131 97t85.5 140.5t49 163t14.5 168.5t-14.5 168.5t-49 163t-85.5 140.5t-131 97t-179 37t-178.5 -37t-130.5 -97t-85.5 -140.5t-49 -163t-14.5 -168.5t14.5 -168.5t49 -163t85.5 -140.5t130.5 -97t178.5 -37zM700 1790l261 -100q26 -11 40 -25.5t16.5 -25t2.5 -25.5
q0 -23 -18 -42.5t-44 -19.5q-20 0 -53 11l-205 92l-204 -92q-33 -11 -54 -11q-26 0 -43.5 19.5t-17.5 42.5q0 15 2.5 25.5t16.5 25t40 25.5z" />
    <glyph glyph-name="Otilde" unicode="&#xd5;" horiz-adv-x="1400" 
d="M82 729q0 113 24.5 219.5t75 201.5t122.5 166t174 112.5t222 41.5t222 -41.5t174 -112.5t123 -166t75.5 -201.5t24.5 -219.5t-24.5 -219.5t-75.5 -201.5t-123 -166t-174 -112.5t-222 -41.5t-222 41.5t-174 112.5t-122.5 166t-75 201.5t-24.5 219.5zM700 123q99 0 179 37
t131 97t85.5 140.5t49 163t14.5 168.5t-14.5 168.5t-49 163t-85.5 140.5t-131 97t-179 37t-178.5 -37t-130.5 -97t-85.5 -140.5t-49 -163t-14.5 -168.5t14.5 -168.5t49 -163t85.5 -140.5t130.5 -97t178.5 -37zM578 1638q-28 0 -58.5 -24.5t-54.5 -24.5q-59 0 -59 56
q0 50 49.5 89.5t113.5 39.5q45 0 129 -28t125 -28q28 0 58.5 25.5t54.5 25.5q59 0 59 -67q0 -41 -50.5 -79t-113.5 -38q-45 0 -128 26.5t-125 26.5z" />
    <glyph glyph-name="Odieresis" unicode="&#xd6;" horiz-adv-x="1400" 
d="M82 729q0 113 24.5 219.5t75 201.5t122.5 166t174 112.5t222 41.5t222 -41.5t174 -112.5t123 -166t75.5 -201.5t24.5 -219.5t-24.5 -219.5t-75.5 -201.5t-123 -166t-174 -112.5t-222 -41.5t-222 41.5t-174 112.5t-122.5 166t-75 201.5t-24.5 219.5zM700 123q99 0 179 37
t131 97t85.5 140.5t49 163t14.5 168.5t-14.5 168.5t-49 163t-85.5 140.5t-131 97t-179 37t-178.5 -37t-130.5 -97t-85.5 -140.5t-49 -163t-14.5 -168.5t14.5 -168.5t49 -163t85.5 -140.5t130.5 -97t178.5 -37zM418 1638q0 41 29.5 71t70.5 30t70.5 -30t29.5 -71t-29.5 -70.5
t-70.5 -29.5t-70.5 29.5t-29.5 70.5zM782 1638q0 41 30 71t71 30t70.5 -30t29.5 -71t-29.5 -70.5t-70.5 -29.5t-71 29.5t-30 70.5z" />
    <glyph glyph-name="multiply" unicode="&#xd7;" horiz-adv-x="1228" 
d="M965 76l-351 350l-350 -350q-29 -29 -57 -29t-46 19t-18 45q0 28 31 59l346 348l-346 348q-31 31 -31 60q0 26 18 44.5t46 18.5q29 0 57 -28l350 -351l351 351q28 28 57 28q28 0 45.5 -18.5t17.5 -44.5q0 -30 -30 -60l-346 -348l346 -348q30 -30 30 -59q0 -26 -17.5 -45
t-45.5 -19t-57 29z" />
    <glyph glyph-name="Oslash" unicode="&#xd8;" horiz-adv-x="1400" 
d="M1077 1098l-690 -834q117 -141 313 -141q99 0 179 37t131 97t85.5 140.5t49 163t14.5 168.5q0 212 -82 369zM319 367l691 831q-117 137 -310 137q-99 0 -178.5 -37t-130.5 -97t-85.5 -140.5t-49 -163t-14.5 -168.5q0 -209 77 -362zM106 106l115 140q-139 201 -139 483
q0 113 24.5 219.5t75 201.5t122.5 166t174 112.5t222 41.5q244 0 402 -161l117 141q35 41 65 41q27 0 41 -14t14 -35q0 -31 -43 -82l-118 -141q69 -99 105 -227t36 -263q0 -113 -24.5 -219.5t-75.5 -201.5t-123 -166t-174 -112.5t-222 -41.5q-246 0 -405 166l-123 -150
q-29 -37 -59 -37q-23 0 -38.5 16t-15.5 37q0 15 7 30t13.5 23.5t26.5 32.5z" />
    <glyph glyph-name="Ugrave" unicode="&#xd9;" horiz-adv-x="1363" 
d="M135 496v880q0 46 19.5 70t54.5 24t54.5 -24t19.5 -70v-862q0 -97 33 -173.5t90 -123t127 -70.5t149 -24t149 24t127 70.5t90 123t33 173.5v862q0 46 19.5 70t54.5 24t54.5 -24t19.5 -70v-880q0 -122 -45.5 -220.5t-122.5 -160t-174 -94.5t-205 -33t-205 33t-174 94.5
t-122.5 160t-45.5 220.5zM797 1573l-283 108q-26 9 -39.5 22.5t-15.5 22.5t-2 23q0 25 16 47.5t41 22.5q20 0 53 -13l283 -108q26 -9 39.5 -22.5t15.5 -22.5t2 -23q0 -25 -16 -47t-41 -22q-23 0 -53 12z" />
    <glyph glyph-name="Uacute" unicode="&#xda;" horiz-adv-x="1363" 
d="M135 496v880q0 46 19.5 70t54.5 24t54.5 -24t19.5 -70v-862q0 -97 33 -173.5t90 -123t127 -70.5t149 -24t149 24t127 70.5t90 123t33 173.5v862q0 46 19.5 70t54.5 24t54.5 -24t19.5 -70v-880q0 -122 -45.5 -220.5t-122.5 -160t-174 -94.5t-205 -33t-205 33t-174 94.5
t-122.5 160t-45.5 220.5zM514 1698l283 108q32 13 53 13q25 0 41 -22.5t16 -47.5q0 -14 -2 -23t-15.5 -22.5t-39.5 -22.5l-283 -108q-30 -12 -53 -12q-25 0 -41 22t-16 47q0 14 2 23t15.5 22.5t39.5 22.5z" />
    <glyph glyph-name="Ucircumflex" unicode="&#xdb;" horiz-adv-x="1363" 
d="M135 496v880q0 46 19.5 70t54.5 24t54.5 -24t19.5 -70v-862q0 -97 33 -173.5t90 -123t127 -70.5t149 -24t149 24t127 70.5t90 123t33 173.5v862q0 46 19.5 70t54.5 24t54.5 -24t19.5 -70v-880q0 -122 -45.5 -220.5t-122.5 -160t-174 -94.5t-205 -33t-205 33t-174 94.5
t-122.5 160t-45.5 220.5zM682 1790l260 -100q26 -11 40 -25.5t16.5 -25t2.5 -25.5q0 -23 -17.5 -42.5t-43.5 -19.5q-20 0 -53 11l-205 92l-205 -92q-33 -11 -53 -11q-26 0 -44 19.5t-18 42.5q0 15 2.5 25.5t17 25t40.5 25.5z" />
    <glyph glyph-name="Udieresis" unicode="&#xdc;" horiz-adv-x="1363" 
d="M135 496v880q0 46 19.5 70t54.5 24t54.5 -24t19.5 -70v-862q0 -97 33 -173.5t90 -123t127 -70.5t149 -24t149 24t127 70.5t90 123t33 173.5v862q0 46 19.5 70t54.5 24t54.5 -24t19.5 -70v-880q0 -122 -45.5 -220.5t-122.5 -160t-174 -94.5t-205 -33t-205 33t-174 94.5
t-122.5 160t-45.5 220.5zM399 1638q0 41 30 71t71 30t70.5 -30t29.5 -71t-29.5 -70.5t-70.5 -29.5t-71 29.5t-30 70.5zM764 1638q0 41 29.5 71t70.5 30t71 -30t30 -71t-30 -70.5t-71 -29.5t-70.5 29.5t-29.5 70.5z" />
    <glyph glyph-name="Yacute" unicode="&#xdd;" horiz-adv-x="987" 
d="M494 834l356 593q23 43 74 43q29 0 45 -16t16 -41q0 -28 -45 -102l-373 -621v-608q0 -94 -73 -94q-35 0 -54.5 24t-19.5 70v608l-373 621q-45 74 -45 102q0 25 16 41t45 16q51 0 74 -43zM326 1698l282 108q33 13 54 13q25 0 41 -22.5t16 -47.5q0 -14 -2 -23t-15.5 -22.5
t-39.5 -22.5l-283 -108q-30 -12 -53 -12q-25 0 -41.5 22t-16.5 47q0 14 2 23t16 22.5t40 22.5z" />
    <glyph glyph-name="Thorn" unicode="&#xde;" horiz-adv-x="1062" 
d="M283 307v-225q0 -46 -19.5 -70t-54.5 -24t-54.5 24t-19.5 70v1294q0 46 19.5 70t54.5 24t54.5 -24t19.5 -70v-168h295q95 0 173.5 -28.5t128.5 -73.5t84.5 -104t49 -117t14.5 -115q0 -93 -29.5 -175t-87.5 -147t-153 -103t-217 -38h-258zM283 1073v-631h270
q84 0 149 28.5t103 75t57 100.5t19 112t-19 112t-57 100.5t-103 74.5t-149 28h-270z" />
    <glyph glyph-name="germandbls" unicode="&#xdf;" horiz-adv-x="1138" 
d="M283 1143v-1061q0 -46 -19.5 -70t-54.5 -24t-54.5 24t-19.5 70v1077q0 201 108 311.5t273 110.5q177 0 285 -112t108 -281q0 -222 -157 -324q75 -20 131 -64t87 -103t45.5 -122.5t14.5 -132.5q0 -83 -23.5 -162t-68 -145t-118.5 -106.5t-165 -40.5q-57 0 -87.5 20.5
t-32.5 54.5q-1 15 1 25t10 22t29 18.5t54 6.5q68 0 116.5 27t75 75t38 103t11.5 121q0 132 -58 215t-175 96q-48 6 -72.5 17.5t-29.5 22.5t-5 30q0 13 1.5 20.5t7.5 16.5t19 16t34 14q40 12 68 29t52.5 47.5t37 80t12.5 118.5q0 47 -14 91.5t-42.5 83.5t-77.5 63t-112 24
q-65 0 -112 -25.5t-72.5 -70t-37 -95.5t-11.5 -112z" />
    <glyph glyph-name="agrave" unicode="&#xe0;" horiz-adv-x="1138" 
d="M856 940v68q0 46 19.5 70t54.5 24t54.5 -24t19.5 -70v-926q0 -46 -19.5 -70t-54.5 -24t-54.5 24t-19.5 70v68h-6q-49 -79 -127 -120.5t-174 -41.5q-151 0 -259 76t-159 200t-51 281q0 84 18 163.5t55.5 151t91.5 125.5t131 85.5t169 31.5q94 0 167.5 -39.5t137.5 -122.5
h6zM240 545q0 -79 16.5 -152.5t51.5 -138.5t97 -104t144 -39q66 0 119.5 26t88 69t57.5 100.5t32.5 116.5t9.5 122t-9.5 122t-32.5 116.5t-57.5 100.5t-88 69t-119.5 26q-64 0 -117.5 -26t-88 -69t-58.5 -100.5t-34.5 -117t-10.5 -121.5zM684 1245l-283 109
q-26 9 -39.5 22.5t-15.5 22t-2 22.5q0 25 16 47.5t41 22.5q24 0 54 -12l282 -109q26 -9 40 -22.5t16 -22t2 -22.5q0 -25 -16.5 -47.5t-41.5 -22.5q-23 0 -53 12z" />
    <glyph glyph-name="aacute" unicode="&#xe1;" horiz-adv-x="1138" 
d="M856 940v68q0 46 19.5 70t54.5 24t54.5 -24t19.5 -70v-926q0 -46 -19.5 -70t-54.5 -24t-54.5 24t-19.5 70v68h-6q-49 -79 -127 -120.5t-174 -41.5q-151 0 -259 76t-159 200t-51 281q0 84 18 163.5t55.5 151t91.5 125.5t131 85.5t169 31.5q94 0 167.5 -39.5t137.5 -122.5
h6zM240 545q0 -79 16.5 -152.5t51.5 -138.5t97 -104t144 -39q66 0 119.5 26t88 69t57.5 100.5t32.5 116.5t9.5 122t-9.5 122t-32.5 116.5t-57.5 100.5t-88 69t-119.5 26q-64 0 -117.5 -26t-88 -69t-58.5 -100.5t-34.5 -117t-10.5 -121.5zM401 1370l283 109q30 12 53 12
q25 0 41.5 -22.5t16.5 -47.5q0 -14 -2 -22.5t-16 -22t-40 -22.5l-282 -109q-30 -12 -54 -12q-25 0 -41 22.5t-16 47.5q0 14 2 22.5t15.5 22t39.5 22.5z" />
    <glyph glyph-name="acircumflex" unicode="&#xe2;" horiz-adv-x="1138" 
d="M856 940v68q0 46 19.5 70t54.5 24t54.5 -24t19.5 -70v-926q0 -46 -19.5 -70t-54.5 -24t-54.5 24t-19.5 70v68h-6q-49 -79 -127 -120.5t-174 -41.5q-151 0 -259 76t-159 200t-51 281q0 84 18 163.5t55.5 151t91.5 125.5t131 85.5t169 31.5q94 0 167.5 -39.5t137.5 -122.5
h6zM240 545q0 -79 16.5 -152.5t51.5 -138.5t97 -104t144 -39q66 0 119.5 26t88 69t57.5 100.5t32.5 116.5t9.5 122t-9.5 122t-32.5 116.5t-57.5 100.5t-88 69t-119.5 26q-64 0 -117.5 -26t-88 -69t-58.5 -100.5t-34.5 -117t-10.5 -121.5zM569 1462l260 -100
q26 -11 40.5 -25.5t17 -25t2.5 -25.5q0 -23 -17.5 -42t-44.5 -19q-23 0 -53 10l-205 92l-204 -92q-30 -10 -54 -10q-26 0 -43.5 19t-17.5 42q0 15 2.5 25.5t16.5 25t40 25.5z" />
    <glyph glyph-name="atilde" unicode="&#xe3;" horiz-adv-x="1138" 
d="M856 940v68q0 46 19.5 70t54.5 24t54.5 -24t19.5 -70v-926q0 -46 -19.5 -70t-54.5 -24t-54.5 24t-19.5 70v68h-6q-49 -79 -127 -120.5t-174 -41.5q-151 0 -259 76t-159 200t-51 281q0 84 18 163.5t55.5 151t91.5 125.5t131 85.5t169 31.5q94 0 167.5 -39.5t137.5 -122.5
h6zM240 545q0 -79 16.5 -152.5t51.5 -138.5t97 -104t144 -39q66 0 119.5 26t88 69t57.5 100.5t32.5 116.5t9.5 122t-9.5 122t-32.5 116.5t-57.5 100.5t-88 69t-119.5 26q-64 0 -117.5 -26t-88 -69t-58.5 -100.5t-34.5 -117t-10.5 -121.5zM446 1311q-28 0 -58 -24.5
t-54 -24.5q-60 0 -60 55q0 50 50 89.5t114 39.5q44 0 128 -27.5t126 -27.5q28 0 58.5 25.5t54.5 25.5q59 0 59 -68q0 -41 -50.5 -79t-113.5 -38q-44 0 -128 27t-126 27z" />
    <glyph glyph-name="adieresis" unicode="&#xe4;" horiz-adv-x="1138" 
d="M856 940v68q0 46 19.5 70t54.5 24t54.5 -24t19.5 -70v-926q0 -46 -19.5 -70t-54.5 -24t-54.5 24t-19.5 70v68h-6q-49 -79 -127 -120.5t-174 -41.5q-151 0 -259 76t-159 200t-51 281q0 84 18 163.5t55.5 151t91.5 125.5t131 85.5t169 31.5q94 0 167.5 -39.5t137.5 -122.5
h6zM240 545q0 -79 16.5 -152.5t51.5 -138.5t97 -104t144 -39q66 0 119.5 26t88 69t57.5 100.5t32.5 116.5t9.5 122t-9.5 122t-32.5 116.5t-57.5 100.5t-88 69t-119.5 26q-64 0 -117.5 -26t-88 -69t-58.5 -100.5t-34.5 -117t-10.5 -121.5zM287 1311q0 41 29.5 70.5t70.5 29.5
t70.5 -29.5t29.5 -70.5t-29.5 -71t-70.5 -30t-70.5 30t-29.5 71zM651 1311q0 41 30 70.5t71 29.5t70.5 -29.5t29.5 -70.5t-29.5 -71t-70.5 -30t-71 30t-30 71z" />
    <glyph glyph-name="aring" unicode="&#xe5;" horiz-adv-x="1138" 
d="M856 940v68q0 46 19.5 70t54.5 24t54.5 -24t19.5 -70v-926q0 -46 -19.5 -70t-54.5 -24t-54.5 24t-19.5 70v68h-6q-49 -79 -127 -120.5t-174 -41.5q-151 0 -259 76t-159 200t-51 281q0 84 18 163.5t55.5 151t91.5 125.5t131 85.5t169 31.5q94 0 167.5 -39.5t137.5 -122.5
h6zM240 545q0 -79 16.5 -152.5t51.5 -138.5t97 -104t144 -39q66 0 119.5 26t88 69t57.5 100.5t32.5 116.5t9.5 122t-9.5 122t-32.5 116.5t-57.5 100.5t-88 69t-119.5 26q-64 0 -117.5 -26t-88 -69t-58.5 -100.5t-34.5 -117t-10.5 -121.5zM379 1391q0 78 56 134t134 56
t134.5 -56t56.5 -134t-56.5 -134.5t-134.5 -56.5t-134 56.5t-56 134.5zM465 1391q0 -43 30.5 -74t73.5 -31t74 31t31 74t-31 73.5t-74 30.5t-73.5 -30.5t-30.5 -73.5z" />
    <glyph glyph-name="ae" unicode="&#xe6;" horiz-adv-x="1820" 
d="M240 545q0 -79 16.5 -152.5t51.5 -138.5t97 -104t144 -39q66 0 119.5 26t88 69t57.5 100.5t32.5 116.5t9.5 122t-9.5 122t-32.5 116.5t-57.5 100.5t-88 69t-119.5 26q-64 0 -117.5 -26t-88 -69t-58.5 -100.5t-34.5 -117t-10.5 -121.5zM856 82v72h-4q-48 -82 -127.5 -124
t-175.5 -42q-151 0 -259 76t-159 200t-51 281q0 84 18 163.5t55.5 151t91.5 125.5t131 85.5t169 31.5q98 0 167.5 -38t139.5 -120h4v64q0 45 18.5 69.5t49.5 24.5t49 -24.5t18 -69.5v-56h17q34 61 118 105.5t166 44.5q111 0 201.5 -44.5t147 -119.5t86.5 -170t30 -199
q0 -90 -100 -90h-666q5 -148 96.5 -258t227.5 -110q63 0 116 17.5t87 42t61.5 49t50.5 42t41 17.5q34 0 52 -16t18 -56q0 -25 -31 -62t-81 -72t-125.5 -60t-153.5 -25q-242 0 -355 151h-4v-57q0 -45 -18 -69.5t-49 -24.5t-49.5 24.5t-18.5 69.5zM991 602h606q-2 70 -23 136
t-58 120.5t-95.5 87.5t-130.5 33q-69 0 -126 -33t-93 -87.5t-57 -120.5t-23 -136z" />
    <glyph glyph-name="ccedilla" unicode="&#xe7;" horiz-adv-x="909" 
d="M598 -8l-47 -72l4 -4q21 6 49 6q56 0 91.5 -34.5t35.5 -80.5q0 -75 -58 -122t-149 -47q-153 0 -153 73q0 49 53 49q17 0 50.5 -12t78.5 -12q26 0 40.5 14.5t14.5 36.5q0 33 -23 43t-67 10q-45 0 -61.5 4.5t-16.5 20.5q0 19 31 72l35 53q-102 10 -184.5 61.5t-134.5 129
t-79.5 171.5t-27.5 193q0 104 33.5 203t93.5 178t154 127.5t206 48.5q105 0 188 -35t83 -80q0 -37 -20.5 -59.5t-61.5 -22.5q-14 0 -38.5 15.5t-67.5 31t-101 15.5q-75 0 -136 -39t-97.5 -101t-56 -132t-19.5 -138q0 -116 36 -214t108 -159t165 -61q58 0 104 14.5t74 28.5
t43 14q22 0 41.5 -17t19.5 -42q0 -57 -66 -90.5t-167 -38.5z" />
    <glyph glyph-name="egrave" unicode="&#xe8;" horiz-adv-x="1062" 
d="M913 479h-673q5 -148 96 -258t227 -110q79 0 144.5 26.5t99.5 57.5t66.5 57.5t54.5 26.5q34 0 51.5 -16t17.5 -56q0 -26 -31.5 -62.5t-84.5 -71.5t-135.5 -60t-172.5 -25q-101 0 -184.5 32t-140 85.5t-95 125.5t-56 151t-17.5 163q0 105 31 203t88 178t148 128t202 48
t201.5 -44.5t147 -119.5t86.5 -170t30 -199q0 -90 -101 -90zM240 602h614q-2 70 -23 136t-58 120.5t-95.5 87.5t-130.5 33t-130.5 -33t-95.5 -87.5t-58 -120.5t-23 -136zM647 1245l-282 109q-26 9 -40 22.5t-16 22t-2 22.5q0 25 16.5 47.5t41.5 22.5q23 0 53 -12l282 -109
q26 -9 40 -22.5t16 -22t2 -22.5q0 -25 -16.5 -47.5t-41.5 -22.5q-23 0 -53 12z" />
    <glyph glyph-name="eacute" unicode="&#xe9;" horiz-adv-x="1062" 
d="M913 479h-673q5 -148 96 -258t227 -110q79 0 144.5 26.5t99.5 57.5t66.5 57.5t54.5 26.5q34 0 51.5 -16t17.5 -56q0 -26 -31.5 -62.5t-84.5 -71.5t-135.5 -60t-172.5 -25q-101 0 -184.5 32t-140 85.5t-95 125.5t-56 151t-17.5 163q0 105 31 203t88 178t148 128t202 48
t201.5 -44.5t147 -119.5t86.5 -170t30 -199q0 -90 -101 -90zM240 602h614q-2 70 -23 136t-58 120.5t-95.5 87.5t-130.5 33t-130.5 -33t-95.5 -87.5t-58 -120.5t-23 -136zM365 1370l282 109q30 12 53 12q25 0 41.5 -22.5t16.5 -47.5q0 -14 -2 -22.5t-16 -22t-40 -22.5
l-282 -109q-30 -12 -53 -12q-25 0 -41.5 22.5t-16.5 47.5q0 14 2 22.5t16 22t40 22.5z" />
    <glyph glyph-name="ecircumflex" unicode="&#xea;" horiz-adv-x="1062" 
d="M913 479h-673q5 -148 96 -258t227 -110q79 0 144.5 26.5t99.5 57.5t66.5 57.5t54.5 26.5q34 0 51.5 -16t17.5 -56q0 -26 -31.5 -62.5t-84.5 -71.5t-135.5 -60t-172.5 -25q-101 0 -184.5 32t-140 85.5t-95 125.5t-56 151t-17.5 163q0 105 31 203t88 178t148 128t202 48
t201.5 -44.5t147 -119.5t86.5 -170t30 -199q0 -90 -101 -90zM240 602h614q-2 70 -23 136t-58 120.5t-95.5 87.5t-130.5 33t-130.5 -33t-95.5 -87.5t-58 -120.5t-23 -136zM532 1462l261 -100q26 -11 40 -25.5t16.5 -25t2.5 -25.5q0 -23 -17.5 -42t-43.5 -19q-24 0 -54 10
l-205 92l-204 -92q-30 -10 -54 -10q-26 0 -43.5 19t-17.5 42q0 15 2.5 25.5t16.5 25t40 25.5z" />
    <glyph glyph-name="edieresis" unicode="&#xeb;" horiz-adv-x="1062" 
d="M913 479h-673q5 -148 96 -258t227 -110q79 0 144.5 26.5t99.5 57.5t66.5 57.5t54.5 26.5q34 0 51.5 -16t17.5 -56q0 -26 -31.5 -62.5t-84.5 -71.5t-135.5 -60t-172.5 -25q-101 0 -184.5 32t-140 85.5t-95 125.5t-56 151t-17.5 163q0 105 31 203t88 178t148 128t202 48
t201.5 -44.5t147 -119.5t86.5 -170t30 -199q0 -90 -101 -90zM240 602h614q-2 70 -23 136t-58 120.5t-95.5 87.5t-130.5 33t-130.5 -33t-95.5 -87.5t-58 -120.5t-23 -136zM250 1311q0 41 29.5 70.5t70.5 29.5t71 -29.5t30 -70.5t-30 -71t-71 -30t-70.5 30t-29.5 71zM614 1311
q0 41 30 70.5t71 29.5t70.5 -29.5t29.5 -70.5t-29.5 -71t-70.5 -30t-71 30t-30 71z" />
    <glyph glyph-name="igrave" unicode="&#xec;" horiz-adv-x="417" 
d="M283 1008v-926q0 -46 -19.5 -70t-54.5 -24t-54.5 24t-19.5 70v926q0 46 19.5 70t54.5 24t54.5 -24t19.5 -70zM324 1245l-283 109q-26 9 -39.5 22.5t-15.5 22t-2 22.5q0 25 16 47.5t41 22.5q23 0 53 -12l283 -109q26 -9 39.5 -22.5t15.5 -22t2 -22.5q0 -25 -16 -47.5
t-41 -22.5q-23 0 -53 12z" />
    <glyph glyph-name="iacute" unicode="&#xed;" horiz-adv-x="417" 
d="M283 1008v-926q0 -46 -19.5 -70t-54.5 -24t-54.5 24t-19.5 70v926q0 46 19.5 70t54.5 24t54.5 -24t19.5 -70zM41 1370l283 109q30 12 53 12q25 0 41 -22.5t16 -47.5q0 -14 -2 -22.5t-15.5 -22t-39.5 -22.5l-283 -109q-30 -12 -53 -12q-25 0 -41 22.5t-16 47.5
q0 14 2 22.5t15.5 22t39.5 22.5z" />
    <glyph glyph-name="icircumflex" unicode="&#xee;" horiz-adv-x="417" 
d="M283 1008v-926q0 -46 -19.5 -70t-54.5 -24t-54.5 24t-19.5 70v926q0 46 19.5 70t54.5 24t54.5 -24t19.5 -70zM209 1462l260 -100q26 -11 40 -25.5t16.5 -25t2.5 -25.5q0 -23 -17.5 -42t-43.5 -19q-23 0 -53 10l-205 92l-205 -92q-30 -10 -53 -10q-27 0 -44.5 19t-17.5 42
q0 15 2.5 25.5t17 25t40.5 25.5z" />
    <glyph glyph-name="idieresis" unicode="&#xef;" horiz-adv-x="417" 
d="M283 1008v-926q0 -46 -19.5 -70t-54.5 -24t-54.5 24t-19.5 70v926q0 46 19.5 70t54.5 24t54.5 -24t19.5 -70zM-74 1311q0 41 30 70.5t71 29.5t70.5 -29.5t29.5 -70.5t-29.5 -71t-70.5 -30t-71 30t-30 71zM291 1311q0 41 29.5 70.5t70.5 29.5t71 -29.5t30 -70.5t-30 -71
t-71 -30t-70.5 30t-29.5 71z" />
    <glyph glyph-name="eth" unicode="&#xf0;" 
d="M549 -12q-112 0 -203.5 49t-148 128.5t-87 175.5t-30.5 196q0 101 30.5 198t87 177t148 129t203.5 49q75 0 149.5 -36t118.5 -102l4 4q-77 210 -272 365l-197 -98q-33 -17 -49 -17q-19 0 -30 14t-11 33q0 33 41 54l172 88q-29 23 -68.5 41.5t-66.5 27.5t-46.5 23.5
t-19.5 34.5q0 22 18 40.5t48 18.5q33 0 84 -22t86.5 -43.5t89.5 -57.5l174 86q38 17 51 17q22 0 33.5 -14t11.5 -36q0 -30 -28 -43l-162 -79q338 -288 338 -783q0 -105 -16.5 -193t-44 -150.5t-66 -111.5t-80.5 -79t-89 -49.5t-89 -27t-84 -7.5zM240 537q0 -59 10 -117
t34 -114.5t58.5 -99.5t88 -69t118.5 -26t118.5 26t88 69t58.5 99.5t34 114.5t10 117q0 61 -10.5 119.5t-34 115t-58.5 99t-88 69t-118 27.5q-65 0 -118 -26t-88 -69t-58.5 -99.5t-34 -115.5t-10.5 -120z" />
    <glyph glyph-name="ntilde" unicode="&#xf1;" 
d="M283 682v-600q0 -46 -19.5 -70t-54.5 -24t-54.5 24t-19.5 70v926q0 46 19.5 70t54.5 24t54.5 -24t19.5 -70v-54h4q102 148 284 148q74 0 143 -25t125 -71.5t90 -122.5t34 -170v-631q0 -46 -19.5 -70t-54.5 -24t-54.5 24t-19.5 70v635q0 114 -71.5 182t-194.5 68
q-110 0 -188 -76t-78 -209zM426 1311q-28 0 -58.5 -24.5t-54.5 -24.5q-59 0 -59 55q0 50 50 89.5t114 39.5q44 0 128 -27.5t126 -27.5q28 0 58 25.5t54 25.5q60 0 60 -68q0 -41 -50.5 -79t-113.5 -38q-44 0 -128 27t-126 27z" />
    <glyph glyph-name="ograve" unicode="&#xf2;" 
d="M240 545q0 -79 16.5 -152.5t51.5 -138.5t97 -104t144 -39t144 39t97 104t51.5 138.5t16.5 152.5t-16.5 152.5t-51.5 138.5t-97 104t-144 39t-144 -39t-97 -104t-51.5 -138.5t-16.5 -152.5zM1018 545q0 -157 -51 -281t-159 -200t-259 -76t-259 76t-159 200t-51 281
q0 84 18 163.5t56 151t92 125.5t132 85.5t171 31.5q94 0 172.5 -31.5t132.5 -85.5t91.5 -125.5t55 -151t17.5 -163.5zM664 1245l-283 109q-26 9 -39.5 22.5t-15.5 22t-2 22.5q0 25 16 47.5t41 22.5q23 0 53 -12l283 -109q26 -9 39.5 -22.5t15.5 -22t2 -22.5q0 -25 -16 -47.5
t-41 -22.5q-23 0 -53 12z" />
    <glyph glyph-name="oacute" unicode="&#xf3;" 
d="M240 545q0 -79 16.5 -152.5t51.5 -138.5t97 -104t144 -39t144 39t97 104t51.5 138.5t16.5 152.5t-16.5 152.5t-51.5 138.5t-97 104t-144 39t-144 -39t-97 -104t-51.5 -138.5t-16.5 -152.5zM1018 545q0 -157 -51 -281t-159 -200t-259 -76t-259 76t-159 200t-51 281
q0 84 18 163.5t56 151t92 125.5t132 85.5t171 31.5q94 0 172.5 -31.5t132.5 -85.5t91.5 -125.5t55 -151t17.5 -163.5zM381 1370l283 109q30 12 53 12q25 0 41 -22.5t16 -47.5q0 -14 -2 -22.5t-15.5 -22t-39.5 -22.5l-283 -109q-30 -12 -53 -12q-25 0 -41 22.5t-16 47.5
q0 14 2 22.5t15.5 22t39.5 22.5z" />
    <glyph glyph-name="ocircumflex" unicode="&#xf4;" 
d="M240 545q0 -79 16.5 -152.5t51.5 -138.5t97 -104t144 -39t144 39t97 104t51.5 138.5t16.5 152.5t-16.5 152.5t-51.5 138.5t-97 104t-144 39t-144 -39t-97 -104t-51.5 -138.5t-16.5 -152.5zM1018 545q0 -157 -51 -281t-159 -200t-259 -76t-259 76t-159 200t-51 281
q0 84 18 163.5t56 151t92 125.5t132 85.5t171 31.5q94 0 172.5 -31.5t132.5 -85.5t91.5 -125.5t55 -151t17.5 -163.5zM549 1462l260 -100q26 -11 40 -25.5t16.5 -25t2.5 -25.5q0 -23 -17.5 -42t-43.5 -19q-23 0 -53 10l-205 92l-205 -92q-30 -10 -53 -10q-27 0 -44.5 19
t-17.5 42q0 15 2.5 25.5t17 25t40.5 25.5z" />
    <glyph glyph-name="otilde" unicode="&#xf5;" 
d="M240 545q0 -79 16.5 -152.5t51.5 -138.5t97 -104t144 -39t144 39t97 104t51.5 138.5t16.5 152.5t-16.5 152.5t-51.5 138.5t-97 104t-144 39t-144 -39t-97 -104t-51.5 -138.5t-16.5 -152.5zM1018 545q0 -157 -51 -281t-159 -200t-259 -76t-259 76t-159 200t-51 281
q0 84 18 163.5t56 151t92 125.5t132 85.5t171 31.5q94 0 172.5 -31.5t132.5 -85.5t91.5 -125.5t55 -151t17.5 -163.5zM426 1311q-28 0 -58.5 -24.5t-54.5 -24.5q-59 0 -59 55q0 50 50 89.5t114 39.5q44 0 128 -27.5t126 -27.5q28 0 58 25.5t54 25.5q60 0 60 -68
q0 -41 -50.5 -79t-113.5 -38q-44 0 -128 27t-126 27z" />
    <glyph glyph-name="odieresis" unicode="&#xf6;" 
d="M240 545q0 -79 16.5 -152.5t51.5 -138.5t97 -104t144 -39t144 39t97 104t51.5 138.5t16.5 152.5t-16.5 152.5t-51.5 138.5t-97 104t-144 39t-144 -39t-97 -104t-51.5 -138.5t-16.5 -152.5zM1018 545q0 -157 -51 -281t-159 -200t-259 -76t-259 76t-159 200t-51 281
q0 84 18 163.5t56 151t92 125.5t132 85.5t171 31.5q94 0 172.5 -31.5t132.5 -85.5t91.5 -125.5t55 -151t17.5 -163.5zM266 1311q0 41 30 70.5t71 29.5t70.5 -29.5t29.5 -70.5t-29.5 -71t-70.5 -30t-71 30t-30 71zM631 1311q0 41 29.5 70.5t70.5 29.5t70.5 -29.5t29.5 -70.5
t-29.5 -71t-70.5 -30t-70.5 30t-29.5 71z" />
    <glyph glyph-name="divide" unicode="&#xf7;" horiz-adv-x="1228" 
d="M1055 451h-881q-35 0 -56.5 19.5t-21.5 47.5t22 48t56 20h881q34 0 56 -20t22 -48t-21.5 -47.5t-56.5 -19.5zM485 88q0 54 37.5 91.5t91.5 37.5t91.5 -37.5t37.5 -91.5t-37.5 -91.5t-91.5 -37.5t-91.5 37.5t-37.5 91.5zM485 948q0 54 37.5 91.5t91.5 37.5t91.5 -37.5
t37.5 -91.5t-37.5 -91.5t-91.5 -37.5t-91.5 37.5t-37.5 91.5z" />
    <glyph glyph-name="oslash" unicode="&#xf8;" 
d="M285 305l465 584q-76 90 -201 90q-82 0 -144 -39t-97 -104t-51.5 -138.5t-16.5 -152.5q0 -136 45 -240zM836 997l86 109q27 37 59 37q21 0 37 -16.5t16 -39.5q0 -22 -35 -69l-86 -109q105 -146 105 -364q0 -157 -51 -281t-159 -200t-259 -76q-175 0 -289 100l-84 -104
q-27 -37 -59 -37q-21 0 -37.5 16t-16.5 39t35 70l84 104q-102 140 -102 369q0 84 18 163.5t56 151t92 125.5t132 85.5t171 31.5q172 0 287 -105zM813 784l-465 -583q77 -90 201 -90q82 0 144 39t97 104t51.5 138.5t16.5 152.5q0 141 -45 239z" />
    <glyph glyph-name="ugrave" unicode="&#xf9;" 
d="M135 358v650q0 46 19.5 70t54.5 24t54.5 -24t19.5 -70v-613q0 -138 70 -211t196 -73t196 73t70 211v613q0 46 19.5 70t54.5 24t54.5 -24t19.5 -70v-650q0 -172 -117 -271t-297 -99t-297 99t-117 271zM664 1245l-283 109q-26 9 -39.5 22.5t-15.5 22t-2 22.5q0 25 16 47.5
t41 22.5q23 0 53 -12l283 -109q26 -9 39.5 -22.5t15.5 -22t2 -22.5q0 -25 -16 -47.5t-41 -22.5q-23 0 -53 12z" />
    <glyph glyph-name="uacute" unicode="&#xfa;" 
d="M135 358v650q0 46 19.5 70t54.5 24t54.5 -24t19.5 -70v-613q0 -138 70 -211t196 -73t196 73t70 211v613q0 46 19.5 70t54.5 24t54.5 -24t19.5 -70v-650q0 -172 -117 -271t-297 -99t-297 99t-117 271zM381 1370l283 109q30 12 53 12q25 0 41 -22.5t16 -47.5
q0 -14 -2 -22.5t-15.5 -22t-39.5 -22.5l-283 -109q-30 -12 -53 -12q-25 0 -41 22.5t-16 47.5q0 14 2 22.5t15.5 22t39.5 22.5z" />
    <glyph glyph-name="ucircumflex" unicode="&#xfb;" 
d="M135 358v650q0 46 19.5 70t54.5 24t54.5 -24t19.5 -70v-613q0 -138 70 -211t196 -73t196 73t70 211v613q0 46 19.5 70t54.5 24t54.5 -24t19.5 -70v-650q0 -172 -117 -271t-297 -99t-297 99t-117 271zM549 1462l260 -100q26 -11 40 -25.5t16.5 -25t2.5 -25.5
q0 -23 -17.5 -42t-43.5 -19q-23 0 -53 10l-205 92l-205 -92q-30 -10 -53 -10q-27 0 -44.5 19t-17.5 42q0 15 2.5 25.5t17 25t40.5 25.5z" />
    <glyph glyph-name="udieresis" unicode="&#xfc;" 
d="M135 358v650q0 46 19.5 70t54.5 24t54.5 -24t19.5 -70v-613q0 -138 70 -211t196 -73t196 73t70 211v613q0 46 19.5 70t54.5 24t54.5 -24t19.5 -70v-650q0 -172 -117 -271t-297 -99t-297 99t-117 271zM266 1311q0 41 30 70.5t71 29.5t70.5 -29.5t29.5 -70.5t-29.5 -71
t-70.5 -30t-71 30t-30 71zM631 1311q0 41 29.5 70.5t70.5 29.5t70.5 -29.5t29.5 -70.5t-29.5 -71t-70.5 -30t-70.5 30t-29.5 71z" />
    <glyph glyph-name="yacute" unicode="&#xfd;" horiz-adv-x="872" 
d="M367 29l-334 962q-8 21 -8 43q0 27 18.5 47.5t48.5 20.5q56 0 78 -68l264 -790h4l264 790q22 68 78 68q30 0 49 -20.5t19 -47.5q0 -22 -8 -43l-471 -1360q-24 -73 -80 -73q-32 0 -50 18.5t-18 42.5q0 29 12 59zM268 1370l283 109q30 12 53 12q25 0 41.5 -22.5t16.5 -47.5
q0 -14 -2 -22.5t-16 -22t-40 -22.5l-282 -109q-30 -12 -54 -12q-25 0 -41 22.5t-16 47.5q0 14 2 22.5t15.5 22t39.5 22.5z" />
    <glyph glyph-name="thorn" unicode="&#xfe;" horiz-adv-x="1138" 
d="M135 -348v1835q0 46 19.5 70t54.5 24t54.5 -24t19.5 -70v-547h6q125 162 301 162q111 0 202 -48t148 -128t88 -178t31 -203t-31 -203t-88 -178t-148 -128t-202 -48q-176 0 -301 162h-6v-498q0 -46 -19.5 -70t-54.5 -24t-54.5 24t-19.5 70zM281 545q0 -79 16.5 -152.5
t51.5 -138.5t97 -104t144 -39t144 39t97 104t51.5 138.5t16.5 152.5t-16.5 152.5t-51.5 138.5t-97 104t-144 39t-144 -39t-97 -104t-51.5 -138.5t-16.5 -152.5z" />
    <glyph glyph-name="ydieresis" unicode="&#xff;" horiz-adv-x="872" 
d="M367 29l-334 962q-8 21 -8 43q0 27 18.5 47.5t48.5 20.5q56 0 78 -68l264 -790h4l264 790q22 68 78 68q30 0 49 -20.5t19 -47.5q0 -22 -8 -43l-471 -1360q-24 -73 -80 -73q-32 0 -50 18.5t-18 42.5q0 29 12 59zM154 1311q0 41 29.5 70.5t70.5 29.5t70.5 -29.5t29.5 -70.5
t-29.5 -71t-70.5 -30t-70.5 30t-29.5 71zM518 1311q0 41 29.5 70.5t70.5 29.5t71 -29.5t30 -70.5t-30 -71t-71 -30t-70.5 30t-29.5 71z" />
    <glyph glyph-name="dotlessi" unicode="&#x131;" horiz-adv-x="417" 
d="M283 1008v-926q0 -46 -19.5 -70t-54.5 -24t-54.5 24t-19.5 70v926q0 46 19.5 70t54.5 24t54.5 -24t19.5 -70z" />
    <glyph glyph-name="Lslash" unicode="&#x141;" horiz-adv-x="757" 
d="M283 715v-580h385q34 0 55.5 -19.5t21.5 -47.5q0 -29 -21.5 -48.5t-55.5 -19.5h-459q-31 0 -52.5 21.5t-21.5 52.5v555l-88 -54q-24 -12 -39 -12q-29 0 -41 18.5t-12 39.5q0 46 41 67l139 82v606q0 46 19.5 70t54.5 24t54.5 -24t19.5 -70v-520l168 98q27 17 45 17
q24 0 38.5 -18.5t14.5 -43.5q0 -24 -10 -37.5t-35 -27.5z" />
    <glyph glyph-name="lslash" unicode="&#x142;" horiz-adv-x="417" 
d="M283 784v-702q0 -46 -19.5 -70t-54.5 -24t-54.5 24t-19.5 70v582l-61 -52q-27 -22 -54 -22q-26 0 -40.5 14.5t-14.5 36.5q0 30 49 72l121 100v674q0 46 19.5 70t54.5 24t54.5 -24t19.5 -70v-549l53 45q33 25 63 25q25 0 40.5 -14t15.5 -40q0 -18 -11.5 -32.5t-40.5 -38.5
z" />
    <glyph glyph-name="OE" unicode="&#x152;" horiz-adv-x="1896" 
d="M82 729q0 112 24.5 218.5t75 201.5t122.5 166.5t174 113t222 41.5q150 0 273 -66t182 -185h4v165q0 74 101 74h473q34 0 55.5 -19.5t21.5 -47.5q0 -29 -21.5 -48.5t-55.5 -19.5h-424v-528h405q34 0 56 -20t22 -48t-22 -48t-56 -20h-407v-524h446q35 0 56.5 -19.5
t21.5 -47.5t-22 -48t-56 -20h-520q-31 0 -52.5 21.5t-21.5 52.5v176h-4q-77 -127 -193 -194.5t-262 -67.5q-120 0 -222 41.5t-174 113t-122.5 166.5t-75 201.5t-24.5 218.5zM1159 729q0 71 -10.5 140t-32 138t-59 127.5t-86.5 104t-118.5 71t-152.5 25.5q-99 0 -178.5 -37
t-130.5 -97.5t-85.5 -141t-49 -162.5t-14.5 -168t14.5 -168t49 -162.5t85.5 -141t130.5 -97.5t178.5 -37q83 0 152.5 25.5t118.5 71t86.5 104t59 127.5t32 138t10.5 140z" />
    <glyph glyph-name="oe" unicode="&#x153;" horiz-adv-x="1859" 
d="M240 545q0 -79 16.5 -152.5t51.5 -138.5t97 -104t144 -39t144 39t97 104t51.5 138.5t16.5 152.5t-16.5 152.5t-51.5 138.5t-97 104t-144 39t-144 -39t-97 -104t-51.5 -138.5t-16.5 -152.5zM549 1102q260 0 385 -230q60 104 156 167t202 63q111 0 201.5 -44.5t147 -119.5
t86.5 -170t30 -199q0 -90 -100 -90h-651q5 -150 91 -259t220 -109q76 0 139 26.5t96 57.5t65 57.5t54 26.5q34 0 52 -16t18 -56q0 -25 -31 -62t-81 -72t-125.5 -60t-153.5 -25q-141 -3 -247.5 54.5t-168.5 166.5q-123 -221 -385 -221q-151 0 -259 76t-159 200t-51 281
q0 84 18 163.5t56 151t92 125.5t132 85.5t171 31.5zM1006 602h591q-2 70 -23 136t-58 120.5t-95.5 87.5t-130.5 33q-84 0 -150 -57t-99 -141.5t-35 -178.5z" />
    <glyph glyph-name="Scaron" unicode="&#x160;" horiz-adv-x="946" 
d="M442 -12q-172 0 -286.5 55t-114.5 119q0 29 20.5 50t49.5 21q11 0 33.5 -11.5t35.5 -22.5q20 -17 97 -46.5t145 -29.5q98 0 177 47.5t119 119.5t40 150q0 56 -23.5 100t-63.5 73.5t-92 54t-109.5 45.5t-115 43.5t-109.5 52.5t-92 67.5t-63.5 94t-23.5 127.5q0 114 60 199
t154 127.5t207 45.5q77 0 155.5 -25t127.5 -62.5t49 -71.5q0 -32 -19.5 -55t-41.5 -23q-24 0 -54 16t-56 35t-72 35t-99 16q-113 0 -188.5 -67t-75.5 -160q0 -51 23.5 -91.5t63.5 -68t92 -50t109.5 -43.5t115 -43.5t109.5 -54.5t92 -71.5t63.5 -99.5t23.5 -135
q0 -201 -127.5 -332t-335.5 -131zM473 1552l-260 101q-26 11 -40 25.5t-16.5 25t-2.5 25.5q0 23 17.5 42t43.5 19q23 0 53 -10l205 -92l205 92q30 10 53 10q27 0 44.5 -19t17.5 -42q0 -15 -2.5 -25.5t-17 -25t-40.5 -25.5z" />
    <glyph glyph-name="scaron" unicode="&#x161;" horiz-adv-x="909" 
d="M432 1102q102 0 193.5 -25.5t142.5 -64.5t49 -78q0 -72 -74 -72q-18 0 -47.5 18.5t-58.5 40t-76.5 40t-97.5 18.5q-84 0 -148.5 -40.5t-64.5 -113.5q0 -90 100 -129l223 -90q63 -25 106 -49t84.5 -59.5t62 -84t20.5 -110.5q0 -142 -113.5 -228.5t-288.5 -86.5
q-84 0 -161 22.5t-125.5 55t-77.5 67.5t-29 62q0 20 22 45.5t48 25.5q19 0 42 -16t49.5 -38.5t58.5 -45.5t79 -39t101 -16q104 0 169.5 54t65.5 132q0 65 -39 101.5t-112 66.5l-254 104q-92 37 -141.5 94t-49.5 152q0 85 51.5 152.5t128.5 101t162 33.5zM455 1225l-260 100
q-26 11 -40.5 25.5t-17 25t-2.5 25.5q0 23 17.5 42t44.5 19q23 0 53 -10l205 -92l204 92q30 10 54 10q26 0 43.5 -19t17.5 -42q0 -15 -2.5 -25.5t-16.5 -25t-40 -25.5z" />
    <glyph glyph-name="Ydieresis" unicode="&#x178;" horiz-adv-x="987" 
d="M494 834l356 593q23 43 74 43q29 0 45 -16t16 -41q0 -28 -45 -102l-373 -621v-608q0 -94 -73 -94q-35 0 -54.5 24t-19.5 70v608l-373 621q-45 74 -45 102q0 25 16 41t45 16q51 0 74 -43zM211 1638q0 41 29.5 71t70.5 30t71 -30t30 -71t-30 -70.5t-71 -29.5t-70.5 29.5
t-29.5 70.5zM575 1638q0 41 30 71t71 30t70.5 -30t29.5 -71t-29.5 -70.5t-70.5 -29.5t-71 29.5t-30 70.5z" />
    <glyph glyph-name="Zcaron" unicode="&#x17d;" horiz-adv-x="1138" 
d="M242 135h762q34 0 55.5 -19.5t21.5 -47.5q0 -29 -21.5 -48.5t-55.5 -19.5h-824q-61 0 -92 22.5t-31 59.5q0 35 60 127l731 1114h-684q-34 0 -56 20t-22 48t21.5 47.5t56.5 19.5h821q35 0 52.5 -16t17.5 -39q0 -31 -29 -74zM569 1552l-260 101q-26 11 -40 25.5t-16.5 25
t-2.5 25.5q0 23 17.5 42t43.5 19q24 0 54 -10l204 -92l205 92q30 10 53 10q27 0 44.5 -19t17.5 -42q0 -15 -2.5 -25.5t-17 -25t-40.5 -25.5z" />
    <glyph glyph-name="zcaron" unicode="&#x17e;" horiz-adv-x="909" 
d="M795 944l-547 -809h528q35 0 56.5 -19.5t21.5 -47.5t-22 -48t-56 -20h-633q-49 0 -67.5 18.5t-18.5 40.5q0 39 33 86l547 809h-479q-34 0 -56 20t-22 48t22 48t56 20h587q82 0 82 -56q0 -44 -32 -90zM455 1225l-260 100q-26 11 -40.5 25.5t-17 25t-2.5 25.5q0 23 17.5 42
t44.5 19q23 0 53 -10l205 -92l204 92q30 10 54 10q26 0 43.5 -19t17.5 -42q0 -15 -2.5 -25.5t-16.5 -25t-40 -25.5z" />
    <glyph glyph-name="florin" unicode="&#x192;" 
d="M311 999h123l41 242q57 340 297 340h84q34 0 56 -20t22 -48t-21.5 -47.5t-56.5 -19.5h-65q-60 0 -102 -43t-62 -154l-45 -250h108q36 0 60 -16.5t24 -44.5t-24 -44.5t-60 -16.5h-131l-137 -775q-21 -122 -55.5 -208t-80 -133.5t-94.5 -68t-108 -20.5h-55q-34 0 -56 20
t-22 48t21.5 47.5t56.5 19.5h53q35 0 61 10.5t52 39.5t46 87t35 146l136 787h-101q-36 0 -60 16.5t-24 44.5t24 44.5t60 16.5z" />
    <glyph glyph-name="circumflex" unicode="&#x2c6;" horiz-adv-x="417" 
d="M209 1462l260 -100q26 -11 40 -25.5t16.5 -25t2.5 -25.5q0 -23 -17.5 -42t-43.5 -19q-23 0 -53 10l-205 92l-205 -92q-30 -10 -53 -10q-27 0 -44.5 19t-17.5 42q0 15 2.5 25.5t17 25t40.5 25.5z" />
    <glyph glyph-name="caron" unicode="&#x2c7;" horiz-adv-x="417" 
d="M209 1225l-260 100q-26 11 -40.5 25.5t-17 25t-2.5 25.5q0 23 17.5 42t44.5 19q23 0 53 -10l205 -92l205 92q30 10 53 10q26 0 43.5 -19t17.5 -42q0 -15 -2.5 -25.5t-16.5 -25t-40 -25.5z" />
    <glyph glyph-name="uni02C9" unicode="&#x2c9;" horiz-adv-x="417" 
d="M401 1223h-385q-94 0 -94 73q0 35 24 54.5t70 19.5h385q46 0 70.5 -19.5t24.5 -54.5t-24.5 -54t-70.5 -19z" />
    <glyph glyph-name="breve" unicode="&#x2d8;" horiz-adv-x="417" 
d="M-66 1407q0 68 56 68q23 0 38.5 -12t27 -29.5t27 -34.5t47.5 -29t79 -12t79 12t47.5 29.5t27 34.5t27 29t38.5 12q55 0 55 -68q0 -75 -74.5 -129.5t-199.5 -54.5t-200 54.5t-75 129.5z" />
    <glyph glyph-name="dotaccent" unicode="&#x2d9;" horiz-adv-x="417" 
d="M109 1311q0 41 29.5 70.5t70.5 29.5t70.5 -29.5t29.5 -70.5t-29.5 -71t-70.5 -30t-70.5 30t-29.5 71z" />
    <glyph glyph-name="ring" unicode="&#x2da;" horiz-adv-x="417" 
d="M18 1391q0 78 56.5 134t134.5 56t134 -56t56 -134t-56 -134.5t-134 -56.5t-134.5 56.5t-56.5 134.5zM104 1391q0 -43 31 -74t74 -31t73.5 31t30.5 74t-30.5 73.5t-73.5 30.5t-74 -30.5t-31 -73.5z" />
    <glyph glyph-name="ogonek" unicode="&#x2db;" horiz-adv-x="417" 
d="M158 0h104q-73 -62 -115.5 -110.5t-42.5 -86.5q0 -26 15.5 -40.5t42.5 -14.5q23 0 54 10.5t50 10.5q26 0 38.5 -15.5t12.5 -34.5q0 -36 -47.5 -58.5t-130.5 -22.5q-81 0 -125.5 30t-44.5 103q0 137 189 229z" />
    <glyph glyph-name="tilde" unicode="&#x2dc;" horiz-adv-x="417" 
d="M86 1311q-28 0 -58.5 -24.5t-54.5 -24.5q-59 0 -59 55q0 50 50 89.5t114 39.5q45 0 128.5 -27.5t125.5 -27.5q28 0 58 25.5t54 25.5q60 0 60 -68q0 -41 -50.5 -79t-113.5 -38q-44 0 -128 27t-126 27z" />
    <glyph glyph-name="hungarumlaut" unicode="&#x2dd;" horiz-adv-x="417" 
d="M-164 1370l283 109q30 12 53 12q25 0 41 -22.5t16 -47.5q0 -14 -2 -22.5t-15.5 -22t-39.5 -22.5l-283 -109q-30 -12 -53 -12q-25 0 -41 22.5t-16 47.5q0 14 2 22.5t15.5 22t39.5 22.5zM246 1370l282 109q30 12 54 12q25 0 41 -22.5t16 -47.5q0 -14 -2 -22.5t-15.5 -22
t-39.5 -22.5l-283 -109q-30 -12 -53 -12q-25 0 -41.5 22.5t-16.5 47.5q0 14 2 22.5t16 22t40 22.5z" />
    <glyph glyph-name="uni03A9" unicode="&#x3a9;" horiz-adv-x="1421" 
d="M395 119v6q-118 110 -194 275t-76 368q0 149 45.5 277.5t125 217t188.5 139t233 50.5q128 0 237.5 -55t182.5 -148t114 -215.5t41 -257.5q0 -208 -79 -379.5t-193 -271.5v-6h301v-119h-471v88q126 88 212.5 261t86.5 401q0 103 -28 204t-80 185.5t-137 137t-189 52.5
q-133 0 -235 -78t-156 -210.5t-54 -295.5q0 -217 88 -395.5t211 -261.5v-88h-471v119h297z" />
    <glyph glyph-name="uni03BC" unicode="&#x3bc;" 
d="M135 -348v1356q0 46 19.5 70t54.5 24t54.5 -24t19.5 -70v-613q0 -138 70 -211t196 -73t196 73t70 211v613q0 46 19.5 70t54.5 24t54.5 -24t19.5 -70v-947q0 -31 -21.5 -52t-52.5 -21t-52.5 21t-21.5 52q-106 -73 -266 -73q-157 0 -262 114h-4v-450q0 -46 -19.5 -70
t-54.5 -24t-54.5 24t-19.5 70z" />
    <glyph glyph-name="pi" unicode="&#x3c0;" horiz-adv-x="1124" 
d="M1071 938h-160v-639q0 -189 29 -299h-137q-35 64 -35 285v653h-362q-8 -219 -51 -509.5t-95 -428.5h-141q55 157 96 434.5t49 503.5q-148 0 -221 -25l-23 97q84 53 281 53h784z" />
    <glyph glyph-name="endash" unicode="&#x2013;" horiz-adv-x="1024" 
d="M961 483h-898q-33 0 -48 19.5t-15 42.5t15 42t48 19h898q33 0 48 -19t15 -42t-15 -42.5t-48 -19.5z" />
    <glyph glyph-name="emdash" unicode="&#x2014;" horiz-adv-x="2048" 
d="M2048 483h-2048q-33 0 -48 19.5t-15 42.5t15 42t48 19h2048q33 0 48 -19t15 -42t-15 -42.5t-48 -19.5z" />
    <glyph glyph-name="quoteleft" unicode="&#x2018;" horiz-adv-x="380" 
d="M70 1169l116 258q19 43 70 43q33 0 52.5 -19.5t19.5 -43.5q0 -22 -17 -61l-116 -259q-19 -43 -70 -43q-33 0 -52.5 20t-19.5 44q0 22 17 61z" />
    <glyph glyph-name="quoteright" unicode="&#x2019;" horiz-adv-x="380" 
d="M70 1169l116 258q19 43 70 43q33 0 52.5 -19.5t19.5 -43.5q0 -22 -17 -61l-116 -259q-19 -43 -70 -43q-33 0 -52.5 20t-19.5 44q0 22 17 61z" />
    <glyph glyph-name="quotesinglbase" unicode="&#x201a;" horiz-adv-x="380" 
d="M70 -125l116 258q19 43 70 43q33 0 52.5 -19.5t19.5 -43.5q0 -23 -17 -62l-116 -258q-19 -43 -70 -43q-33 0 -52.5 20t-19.5 44q0 22 17 61z" />
    <glyph glyph-name="quotedblleft" unicode="&#x201c;" horiz-adv-x="645" 
d="M70 1169l116 258q19 43 70 43q33 0 52.5 -19.5t19.5 -43.5q0 -22 -17 -61l-116 -259q-19 -43 -70 -43q-33 0 -52.5 20t-19.5 44q0 22 17 61zM334 1169l117 258q19 43 69 43q33 0 52.5 -19.5t19.5 -43.5q0 -22 -17 -61l-116 -259q-19 -43 -70 -43q-33 0 -52.5 20t-19.5 44
q0 22 17 61z" />
    <glyph glyph-name="quotedblright" unicode="&#x201d;" horiz-adv-x="645" 
d="M70 1169l116 258q19 43 70 43q33 0 52.5 -19.5t19.5 -43.5q0 -22 -17 -61l-116 -259q-19 -43 -70 -43q-33 0 -52.5 20t-19.5 44q0 22 17 61zM334 1169l117 258q19 43 69 43q33 0 52.5 -19.5t19.5 -43.5q0 -22 -17 -61l-116 -259q-19 -43 -70 -43q-33 0 -52.5 20t-19.5 44
q0 22 17 61z" />
    <glyph glyph-name="quotedblbase" unicode="&#x201e;" horiz-adv-x="645" 
d="M70 -125l116 258q19 43 70 43q33 0 52.5 -19.5t19.5 -43.5q0 -23 -17 -62l-116 -258q-19 -43 -70 -43q-33 0 -52.5 20t-19.5 44q0 22 17 61zM334 -125l117 258q19 43 69 43q33 0 52.5 -19.5t19.5 -43.5q0 -23 -17 -62l-116 -258q-19 -43 -70 -43q-33 0 -52.5 20t-19.5 44
q0 22 17 61z" />
    <glyph glyph-name="dagger" unicode="&#x2020;" horiz-adv-x="1249" 
d="M692 801v-1149q0 -45 -18 -69.5t-49 -24.5t-49.5 24.5t-18.5 69.5v1149h-407q-45 0 -70 18t-25 49t25 49.5t70 18.5h407v440q0 45 18.5 69.5t49.5 24.5t49 -24.5t18 -69.5v-440h408q45 0 69.5 -18.5t24.5 -49.5t-24.5 -49t-69.5 -18h-408z" />
    <glyph glyph-name="daggerdbl" unicode="&#x2021;" horiz-adv-x="1249" 
d="M557 178v680h-424q-34 0 -56 20t-22 48t21.5 47.5t56.5 19.5h424v408q0 34 20 56t48 22t47.5 -21.5t19.5 -56.5v-408h424q35 0 56.5 -19.5t21.5 -47.5t-22 -48t-56 -20h-424v-680h424q35 0 56.5 -19.5t21.5 -47.5t-22 -48t-56 -20h-424v-408q0 -34 -19.5 -55.5
t-47.5 -21.5q-29 0 -48.5 21.5t-19.5 55.5v408h-424q-34 0 -56 20t-22 48t21.5 47.5t56.5 19.5h424z" />
    <glyph glyph-name="bullet" unicode="&#x2022;" horiz-adv-x="1024" 
d="M147 729q0 151 107 258t258 107t258 -107t107 -258t-107 -257.5t-258 -106.5t-258 106.5t-107 257.5z" />
    <glyph glyph-name="ellipsis" unicode="&#x2026;" horiz-adv-x="2048" 
d="M248 82q0 38 28 66t66 28t66 -28t28 -66t-28 -66t-66 -28t-66 28t-28 66zM930 82q0 38 28 66t66 28t66 -28t28 -66t-28 -66t-66 -28t-66 28t-28 66zM1612 82q0 38 28 66t66 28t66 -28t28 -66t-28 -66t-66 -28t-66 28t-28 66z" />
    <glyph glyph-name="perthousand" unicode="&#x2030;" horiz-adv-x="2238" 
d="M1841 -12q-129 0 -222 98t-93 248q0 160 94 261t221 101t221.5 -101t94.5 -261q0 -150 -93.5 -248t-222.5 -98zM1841 86q64 0 109.5 38.5t64.5 93t19 116.5q0 116 -52 190t-141 74t-140.5 -73.5t-51.5 -190.5q0 -62 19 -116.5t64 -93t109 -38.5zM397 762q-129 0 -222 98
t-93 248q0 160 94 261t221 101t221.5 -101t94.5 -261q0 -150 -93.5 -248t-222.5 -98zM397 860q64 0 109.5 38.5t64.5 93t19 116.5q0 116 -52 190t-141 74t-140.5 -73.5t-51.5 -190.5q0 -62 19 -116.5t64 -93t109 -38.5zM1120 -12q-129 0 -222 98t-93 248q0 160 94 261
t221 101t221.5 -101t94.5 -261q0 -150 -93.5 -248t-222.5 -98zM1120 86q64 0 109.5 38.5t64.5 93t19 116.5q0 116 -52 190t-141 74t-140.5 -73.5t-51.5 -190.5q0 -62 19 -116.5t64 -93t109 -38.5zM438 78l533 1362q20 51 63 51q26 0 42 -13.5t16 -33.5q0 -15 -19 -64
l-532 -1362q-20 -51 -64 -51q-26 0 -41.5 13t-15.5 34q0 17 18 64z" />
    <glyph glyph-name="guilsinglleft" unicode="&#x2039;" horiz-adv-x="491" 
d="M272 193l-166 292q-22 43 -22 60q0 16 22 59l166 293q17 29 33 43t41 14q28 0 45 -16.5t17 -36.5q0 -23 -21 -59l-172 -297l172 -297q21 -36 21 -60q0 -20 -17 -36.5t-45 -16.5q-24 0 -40.5 14.5t-33.5 43.5z" />
    <glyph glyph-name="guilsinglright" unicode="&#x203a;" horiz-adv-x="491" 
d="M219 897l166 -293q23 -45 23 -59q0 -15 -23 -60l-166 -292q-17 -29 -33.5 -43.5t-40.5 -14.5q-28 0 -44.5 16.5t-16.5 36.5q0 26 20 60l172 297l-172 297q-20 34 -20 59q0 20 16.5 36.5t44.5 16.5q25 0 41 -14t33 -43z" />
    <glyph glyph-name="fraction" unicode="&#x2044;" horiz-adv-x="339" 
d="M-147 78l532 1362q20 51 64 51q26 0 41.5 -13t15.5 -34q0 -15 -19 -64l-532 -1362q-20 -51 -64 -51q-26 0 -41.5 13t-15.5 34q0 15 19 64z" />
    <glyph glyph-name="Euro" unicode="&#x20ac;" 
d="M1010 1378v-151q-108 104 -297 104q-164 0 -255.5 -110.5t-109.5 -292.5h574l-39 -119h-549q-2 -20 -2 -78q0 -16 1 -43.5t1 -36.5h493l-39 -116h-440q22 -200 115.5 -306t249.5 -106q177 0 297 104v-151q-41 -36 -123.5 -61t-192.5 -25q-433 0 -495 545h-146l39 116h94
q-4 40 -4 80q0 32 4 78h-133l39 119h105q15 122 50.5 218t94.5 169.5t148 113t204 39.5q104 0 187.5 -26.5t128.5 -63.5z" />
    <glyph glyph-name="afii61289" unicode="&#x2113;" horiz-adv-x="958" 
d="M842 307l69 -59q-130 -250 -366 -250q-83 0 -146 30.5t-101 84.5t-57.5 121t-21.5 147v27q-51 -40 -115 -97l-45 86q124 107 158 142v563q0 133 26 231t71 151.5t96 78t110 24.5q118 0 180 -91t62 -236q0 -184 -106 -368t-304 -384l2 -70q0 -166 61.5 -245.5t157.5 -79.5
q86 0 156 57.5t113 136.5zM352 1110v-457q147 164 229.5 312.5t82.5 291.5q0 222 -144 222q-68 0 -118 -89.5t-50 -279.5z" />
    <glyph glyph-name="trademark" unicode="&#x2122;" horiz-adv-x="2027" 
d="M397 692v643h-202q-33 0 -48.5 19.5t-15.5 42.5t15.5 42t48.5 19h540q33 0 48.5 -19t15.5 -42t-15.5 -42.5t-48.5 -19.5h-203v-643q0 -35 -19.5 -56.5t-47.5 -21.5t-48 22t-20 56zM973 688v655q0 60 30 93.5t80 33.5q97 0 140 -108l215 -543l209 543q43 108 139 108
q50 0 80 -33.5t30 -93.5v-655q0 -35 -19.5 -56.5t-47.5 -21.5t-48 22t-20 56v635h-4l-252 -645q-16 -40 -31.5 -54t-37.5 -14t-38 14t-32 54l-254 645h-4v-635q0 -34 -20 -56t-48 -22t-47.5 21.5t-19.5 56.5z" />
    <glyph glyph-name="Omega" unicode="&#x2126;" horiz-adv-x="1421" 
d="M395 119v6q-118 110 -194 275t-76 368q0 149 45.5 277.5t125 217t188.5 139t233 50.5q128 0 237.5 -55t182.5 -148t114 -215.5t41 -257.5q0 -208 -79 -379.5t-193 -271.5v-6h301v-119h-471v88q126 88 212.5 261t86.5 401q0 103 -28 204t-80 185.5t-137 137t-189 52.5
q-133 0 -235 -78t-156 -210.5t-54 -295.5q0 -217 88 -395.5t211 -261.5v-88h-471v119h297z" />
    <glyph glyph-name="estimated" unicode="&#x212e;" horiz-adv-x="1787" 
d="M1716 709h-1333q-10 0 -10 -9v-403q0 -28 16 -47q99 -103 229.5 -161t274.5 -58q156 0 293.5 65t238.5 180h117q-110 -132 -282 -209t-369 -77q-167 0 -319 58t-262 157t-175 235.5t-65 286.5q0 152 65 289.5t175 237t262 158t319 58.5q168 0 321 -58.5t263.5 -158
t175.5 -237t65 -289.5v-18zM1413 762v405q0 29 -18 47q-102 99 -230.5 155t-271.5 56q-142 0 -272 -58t-230 -159q-18 -18 -18 -51v-395q0 -14 10 -14h1022q8 0 8 14z" />
    <glyph glyph-name="partialdiff" unicode="&#x2202;" horiz-adv-x="1079" 
d="M203 1397l-51 106q141 113 327 113q78 0 150 -29t136 -91t111.5 -151t75 -218t27.5 -283q0 -246 -57 -434.5t-174.5 -300t-282.5 -111.5q-93 0 -167 39.5t-119 106t-69 149.5t-24 174q0 116 35 215.5t93.5 165.5t134.5 103.5t159 37.5q64 0 122.5 -21t98.5 -53
t66.5 -61.5t40.5 -56.5h2q2 25 2 90q0 268 -109.5 438t-265.5 170q-147 0 -262 -98zM475 117h2q93 0 167.5 75.5t117.5 194t57 262.5q-28 83 -106.5 153t-184.5 70q-123 0 -212 -119t-89 -286q0 -154 68.5 -252t179.5 -98z" />
    <glyph glyph-name="Delta" unicode="&#x2206;" horiz-adv-x="1277" 
d="M63 0v100l498 1366h164l492 -1364v-102h-1154zM207 119h856l-291 794q-14 44 -65.5 186t-65.5 195h-8q-10 -45 -58 -177t-61 -173z" />
    <glyph glyph-name="product" unicode="&#x220f;" horiz-adv-x="1382" 
d="M1327 1296h-215v-1493h-141v1493h-561v-1493h-142v1493h-215v134h1274v-134z" />
    <glyph glyph-name="summation" unicode="&#x2211;" 
d="M1051 -197h-1006v97l539 712l-514 715v103h950v-125h-754v-9l479 -661l-518 -688v-8h824v-136z" />
    <glyph glyph-name="minus" unicode="&#x2212;" horiz-adv-x="1228" 
d="M1055 451h-881q-35 0 -56.5 19.5t-21.5 47.5t22 48t56 20h881q34 0 56 -20t22 -48t-21.5 -47.5t-56.5 -19.5z" />
    <glyph glyph-name="uni2215" unicode="&#x2215;" horiz-adv-x="339" 
d="M-147 78l532 1362q20 51 64 51q26 0 41.5 -13t15.5 -34q0 -15 -19 -64l-532 -1362q-20 -51 -64 -51q-26 0 -41.5 13t-15.5 34q0 15 19 64z" />
    <glyph glyph-name="uni2219" unicode="&#x2219;" horiz-adv-x="491" 
d="M152 653q0 37 28.5 66t65.5 29t65.5 -29t28.5 -66t-28.5 -65.5t-65.5 -28.5t-65.5 28.5t-28.5 65.5z" />
    <glyph glyph-name="radical" unicode="&#x221a;" horiz-adv-x="1134" 
d="M1133 1698l-441 -2005h-127l-319 954l-148 -57l-30 90l268 104l256 -766q26 -102 33 -147h4q2 21 12 76.5t12 70.5l371 1680h109z" />
    <glyph glyph-name="infinity" unicode="&#x221e;" horiz-adv-x="1554" 
d="M1452 596v-4q0 -140 -90.5 -228t-214.5 -88q-91 0 -174 56t-193 182q-49 -56 -83 -90t-83.5 -72.5t-102.5 -57t-112 -18.5q-123 0 -211 89.5t-88 220.5q0 136 89.5 225.5t224.5 89.5q55 0 106 -18.5t98.5 -55.5t84.5 -74t83 -91q35 40 45.5 51.5t44 46t50 47t49 36
t58 32.5t59.5 17.5t69 8.5q130 0 210.5 -85t80.5 -220zM414 367h2q31 0 63 11t55 23.5t55.5 41t47 43t48.5 51t42 45.5q-34 42 -46.5 57t-45 50.5t-53 51t-52 36t-63 28.5t-66.5 8q-93 0 -147.5 -67t-54.5 -162q2 -92 61.5 -154.5t153.5 -62.5zM1151 813h-2q-38 0 -76 -14.5
t-74 -44t-59.5 -52t-58.5 -61.5t-45 -49q114 -126 178.5 -175.5t140.5 -49.5q90 0 145.5 67t55.5 152q0 105 -57.5 166t-147.5 61z" />
    <glyph glyph-name="integral" unicode="&#x222b;" horiz-adv-x="710" 
d="M676 1716l-25 -100q-32 20 -71 20q-65 0 -103 -49q-36 -45 -51.5 -130.5t-15.5 -235.5q0 -158 13 -511.5t13 -521.5q0 -279 -86 -413q-31 -51 -83 -77t-111 -26q-70 0 -129 33l26 107q56 -25 90 -25q58 0 93 47q69 94 69 354q0 168 -13 527.5t-13 519.5q0 170 23.5 270
t80.5 160q74 80 186 80q59 0 107 -29z" />
    <glyph glyph-name="approxequal" unicode="&#x2248;" horiz-adv-x="1120" 
d="M967 872l59 -51q-93 -190 -256 -190q-55 0 -101.5 18.5t-131.5 65.5q-110 67 -187 67q-63 0 -107.5 -39t-88.5 -110l-64 51q46 89 118 139.5t157 50.5q27 0 53 -5t53 -16t41.5 -18t43 -23.5t32.5 -18.5q5 -3 27.5 -15.5t28.5 -15.5t24 -12.5t26.5 -12t24 -7t29 -6
t28.5 -1.5q59 0 103.5 36t87.5 113zM967 532l59 -51q-96 -188 -256 -188q-38 0 -77.5 12t-66 25t-89.5 47q-56 34 -98 51.5t-87 17.5q-65 0 -108.5 -39t-89.5 -112l-64 49q46 91 118 142t157 51q34 0 70.5 -10t55 -19t55 -29.5t42.5 -23.5q7 -4 31.5 -17.5t32.5 -17.5
t28 -13.5t32 -12.5t30 -6t36 -3q59 0 101 35t88 112z" />
    <glyph glyph-name="notequal" unicode="&#x2260;" horiz-adv-x="1120" 
d="M793 1020l-91 -199h316v-94h-352l-136 -293h488v-94h-526l-107 -236l-76 35l92 201h-299v94h338l135 293h-473v94h510l107 234z" />
    <glyph glyph-name="lessequal" unicode="&#x2264;" horiz-adv-x="1120" 
d="M1012 201l-899 454v99l899 454v-114l-797 -385v-4l797 -390v-114zM1018 20h-916v99h916v-99z" />
    <glyph glyph-name="greaterequal" unicode="&#x2265;" horiz-adv-x="1120" 
d="M115 1208l899 -454v-99l-899 -454v114l794 387v5l-794 387v114zM1016 20h-912v99h912v-99z" />
    <glyph glyph-name="lozenge" unicode="&#x25ca;" horiz-adv-x="1136" 
d="M1026 713l-403 -803h-117l-395 803l401 805h117zM893 711l-287 575q-21 50 -37 107h-6q-15 -57 -39 -107l-284 -569l288 -580q29 -66 35 -104h8q12 51 35 102z" />
    </font>
</defs>
</svg>
